<?xml version="1.0" standalone="no"?>
<!DOCTYPE svg PUBLIC "-//W3C//DTD SVG 20010904//EN"
 "http://www.w3.org/TR/2001/REC-SVG-20010904/DTD/svg10.dtd">
<svg version="1.0" xmlns="http://www.w3.org/2000/svg"
 width="1154.000000pt" height="1080.000000pt" viewBox="0 0 1154.000000 1080.000000"
 preserveAspectRatio="xMidYMid meet">
<metadata>
Created by potrace 1.15, written by Peter Selinger 2001-2017
</metadata>
<g transform="translate(0.000000,1080.000000) scale(0.100000,-0.100000)"
fill="#000000" stroke="none">
<path d="M6381 10461 c-7 -5 -10 -14 -7 -20 4 -6 0 -14 -9 -17 -13 -6 -14 -8
-3 -15 10 -7 9 -9 -4 -9 -10 0 -22 -8 -27 -19 -6 -10 -28 -26 -49 -34 -39 -15
-53 -37 -67 -98 -4 -14 -17 -37 -31 -52 -13 -14 -24 -33 -24 -42 0 -9 -5 -13
-10 -10 -6 4 -10 3 -9 -2 4 -21 -3 -41 -19 -59 -9 -10 -23 -32 -30 -47 -23
-54 -9 -93 17 -44 25 47 39 70 48 76 14 11 62 111 53 111 -5 0 4 21 21 48 16
26 28 55 25 65 -2 10 4 21 15 27 10 6 19 7 19 3 0 -4 27 20 59 55 35 37 66 62
79 62 29 0 53 -11 46 -21 -3 -5 0 -9 5 -9 6 0 10 -3 9 -7 -4 -14 32 -73 45
-73 9 0 9 -2 0 -8 -15 -9 -3 -64 15 -70 15 -5 16 38 0 75 -6 15 -12 35 -13 43
-2 32 -17 59 -38 73 -29 19 -98 30 -116 18z"/>
<path d="M7690 10405 c-14 -8 -34 -18 -45 -24 -11 -5 -45 -48 -75 -96 -30 -49
-76 -110 -102 -137 -27 -27 -48 -53 -48 -58 0 -5 -9 -12 -21 -15 -11 -4 -26
-19 -32 -33 -7 -15 -23 -37 -37 -50 -38 -35 -146 -112 -157 -112 -5 0 -17 -16
-26 -35 -9 -19 -13 -35 -9 -35 21 0 5 -36 -30 -68 -21 -19 -35 -38 -32 -43 3
-5 -2 -9 -11 -9 -8 0 -19 -8 -22 -17 -8 -21 -93 -103 -106 -103 -5 0 -7 -7 -3
-15 3 -9 -3 -19 -17 -26 -12 -7 -44 -31 -71 -55 -48 -42 -86 -61 -86 -43 0 5
4 9 9 9 5 0 9 12 9 28 -1 55 32 285 42 297 19 23 18 79 -3 120 -12 22 -22 56
-24 76 -5 62 -20 89 -62 107 -26 11 -45 28 -55 50 -9 18 -27 37 -40 42 -14 5
-30 19 -37 32 -27 50 -62 61 -56 18 4 -24 46 -70 64 -70 7 0 13 -4 13 -10 0
-5 4 -9 10 -7 5 1 18 -14 28 -33 11 -19 28 -36 38 -38 42 -6 63 -35 73 -101 6
-35 17 -73 24 -85 24 -37 16 -69 -22 -87 -43 -20 -62 -15 -97 24 -25 28 -28
29 -34 12 -6 -16 -7 -17 -13 -2 -5 14 -9 15 -37 1 -16 -9 -28 -19 -25 -24 3
-4 -2 -11 -10 -14 -16 -6 -30 -36 -41 -84 -4 -22 -3 -24 6 -12 9 13 11 12 8
-5 -2 -11 -9 -20 -16 -20 -8 0 -20 -9 -28 -19 -8 -11 -14 -14 -14 -7 0 8 -7
10 -20 6 -10 -3 -42 -8 -69 -10 -52 -4 -80 12 -65 36 5 9 2 10 -12 5 -10 -5
-38 -11 -61 -13 -35 -5 -43 -2 -55 17 -7 12 -30 30 -51 41 -43 23 -78 72 -76
109 1 14 0 34 -1 45 -1 20 -1 20 -9 0 -4 -11 -7 -53 -6 -95 2 -50 -2 -84 -12
-103 -15 -30 -9 -52 8 -27 6 10 7 4 3 -20 -4 -19 -13 -40 -20 -46 -8 -6 -16
-34 -19 -62 -4 -39 -2 -51 11 -56 9 -3 20 -4 25 0 5 3 9 -2 9 -10 0 -9 -4 -16
-10 -16 -6 0 -9 -82 -8 -217 1 -198 -8 -533 -16 -608 -5 -44 -15 -213 -21
-338 -2 -60 -13 -159 -24 -220 -11 -62 -22 -146 -26 -187 -3 -41 -8 -83 -11
-92 -3 -10 2 -19 16 -23 22 -7 28 -45 8 -45 -7 -1 -2 -10 11 -20 13 -11 20
-20 16 -20 -3 0 1 -8 11 -17 10 -10 20 -18 24 -18 3 0 22 -17 42 -37 21 -20
46 -39 58 -43 11 -3 20 -13 20 -21 0 -30 64 -180 83 -194 11 -8 27 -22 36 -30
32 -29 79 -60 93 -60 7 0 14 8 15 18 6 75 17 143 24 147 4 3 14 -2 22 -10 9
-8 20 -15 25 -15 6 0 22 -13 35 -30 14 -16 31 -30 37 -30 6 0 10 -6 9 -12 -5
-27 13 -78 28 -78 9 0 13 -6 10 -15 -4 -8 6 -24 23 -38 16 -14 27 -27 24 -29
-2 -3 7 -17 21 -32 14 -15 25 -34 25 -42 0 -7 6 -14 14 -14 7 0 20 -10 29 -22
8 -13 18 -20 22 -16 4 3 -3 16 -14 27 -27 27 -28 50 -1 26 11 -10 20 -23 20
-28 0 -6 6 -18 13 -26 8 -9 19 -50 25 -92 6 -41 18 -88 26 -105 9 -16 16 -39
16 -51 0 -12 5 -34 11 -50 7 -15 13 -36 14 -46 2 -19 21 -37 42 -37 6 0 16 14
22 30 5 17 7 30 4 30 -3 0 0 7 7 15 6 8 14 27 16 42 2 15 7 48 12 73 11 67 6
174 -9 201 -8 14 -14 57 -15 104 -1 71 -4 87 -34 140 -31 56 -34 66 -33 144 1
47 -3 78 -7 71 -4 -7 -6 -19 -3 -27 5 -14 -12 -19 -21 -5 -2 4 -7 33 -11 64
-8 71 -40 174 -53 171 -12 -3 -11 150 1 158 5 4 21 1 36 -6 14 -7 50 -16 80
-20 53 -7 121 -39 121 -56 0 -10 82 -48 136 -63 11 -4 29 -14 40 -24 10 -9 42
-35 69 -56 28 -22 60 -51 72 -65 12 -14 22 -20 23 -13 0 6 -5 12 -12 12 -6 0
-9 3 -6 6 8 8 58 -26 58 -38 0 -6 -8 -4 -17 3 -10 7 8 -12 40 -44 58 -56 75
-69 61 -44 -4 7 -3 9 2 4 5 -5 9 -12 9 -15 0 -4 12 -23 28 -43 15 -20 27 -41
27 -47 0 -31 23 -111 30 -107 5 3 7 -13 4 -35 -3 -26 1 -53 12 -75 17 -36 39
-59 27 -29 -4 12 -3 15 5 10 15 -9 16 -36 2 -36 -8 0 38 -97 60 -125 4 -5 11
-25 15 -42 6 -30 46 -73 67 -73 5 0 18 16 29 35 14 23 28 35 43 35 21 0 56
-31 56 -49 0 -5 6 -16 13 -23 22 -25 37 -57 37 -83 0 -14 8 -42 19 -63 30 -61
71 -239 76 -328 2 -49 9 -71 32 -105 17 -24 39 -62 51 -84 11 -22 29 -49 41
-59 13 -11 17 -22 11 -26 -5 -3 5 -28 25 -58 19 -28 35 -53 35 -56 0 -3 5 -17
10 -31 l10 -27 20 24 c16 21 19 40 18 136 -2 106 -1 112 23 133 13 11 36 27
52 35 15 8 27 21 27 29 0 8 5 15 10 15 6 0 10 5 10 10 0 6 -10 10 -22 10 l-23
0 21 18 c16 12 21 27 19 55 -1 20 2 37 7 37 5 0 -4 19 -20 43 -23 32 -27 47
-21 65 5 12 8 38 7 57 -1 38 21 64 57 65 25 0 96 -37 111 -59 7 -9 24 -29 38
-46 l26 -30 -22 -7 c-23 -6 -17 -9 25 -12 21 -2 50 -34 44 -50 -4 -9 -2 -16 3
-16 12 0 30 -34 36 -68 3 -15 10 -30 17 -34 10 -6 46 -131 49 -168 0 -8 11
-33 24 -55 52 -92 96 -284 74 -326 -8 -13 -6 -36 4 -76 15 -57 23 -132 31
-288 3 -44 8 -96 11 -115 4 -19 6 -64 5 -100 -2 -56 12 -227 23 -287 2 -10 7
-46 10 -78 12 -106 16 -126 28 -119 7 5 8 2 4 -5 -8 -12 11 -71 23 -71 26 2
39 33 50 115 6 50 14 105 17 123 3 20 1 32 -4 28 -10 -6 -23 166 -13 174 3 3
7 19 8 35 3 45 22 196 29 232 3 17 17 42 30 54 13 12 24 28 24 36 0 7 3 13 8
13 7 0 11 30 15 108 1 17 5 32 9 32 16 0 108 -99 108 -116 0 -23 34 -122 59
-175 48 -98 170 -561 157 -595 -3 -8 -2 -14 3 -14 10 0 18 -38 26 -120 3 -30
9 -77 15 -105 18 -96 29 -171 40 -260 6 -49 13 -112 16 -140 3 -27 11 -59 16
-70 13 -24 40 -279 31 -301 -3 -9 0 -19 6 -24 13 -8 28 -105 36 -231 3 -42 14
-128 26 -190 11 -63 25 -148 31 -189 5 -41 12 -82 16 -90 3 -8 4 -21 3 -27 -1
-7 2 -13 7 -13 5 0 10 -21 10 -46 1 -25 7 -54 12 -64 5 -10 7 -26 4 -34 -8
-22 18 -77 34 -71 9 3 10 0 2 -15 -9 -17 -8 -20 8 -20 11 0 25 -6 31 -14 7 -8
37 -24 69 -37 31 -12 69 -31 85 -42 38 -26 130 -57 191 -64 32 -4 57 -14 70
-27 12 -12 38 -30 59 -41 20 -11 37 -23 37 -27 0 -5 5 -8 12 -8 24 0 148 -81
202 -133 31 -30 56 -52 56 -48 0 3 6 -1 13 -10 7 -8 20 -18 31 -22 14 -6 16
-10 7 -21 -9 -11 -5 -15 21 -20 17 -3 40 -14 50 -22 29 -27 32 4 10 85 -12 41
-16 73 -11 76 5 4 9 -1 9 -9 0 -9 5 -16 11 -16 6 0 8 7 5 17 -4 9 -10 38 -13
63 -3 25 -10 50 -15 57 -5 7 -7 22 -3 34 5 15 4 19 -4 14 -11 -6 -9 18 5 63 2
6 -1 12 -6 12 -5 0 -5 13 0 30 5 17 12 67 15 113 7 80 30 166 49 179 5 3 15 4
23 1 7 -3 13 -1 13 4 0 18 -12 22 -31 12 -14 -7 -17 -6 -14 3 2 7 6 35 9 62 3
27 9 53 15 59 11 11 4 37 -11 37 -5 0 -7 -4 -3 -10 3 -5 -4 -19 -15 -30 -11
-11 -18 -25 -15 -31 10 -15 -15 -149 -27 -149 -6 0 -8 7 -4 15 3 8 0 15 -5 15
-7 0 -9 -11 -7 -25 6 -29 -18 -36 -25 -7 -4 15 -5 15 -6 -1 0 -11 7 -21 17
-24 15 -4 17 -14 14 -76 -6 -101 -16 -111 -36 -36 -20 75 -20 72 -18 127 1 27
6 41 14 40 8 -2 13 12 13 40 1 37 -2 43 -22 48 -16 4 -23 14 -25 33 -2 40 -3
45 -11 58 -9 15 -7 72 4 98 4 11 12 36 18 55 8 31 9 28 7 -25 -1 -33 -6 -67
-11 -74 -5 -9 -4 -12 2 -8 6 4 18 -5 28 -19 16 -24 16 -27 -2 -46 l-18 -21 28
18 c15 9 26 24 25 33 -2 9 5 16 19 17 29 2 34 7 24 23 -4 7 -21 14 -37 15 -22
2 -30 8 -32 25 -2 14 2 22 11 22 20 0 29 37 11 44 -8 3 -14 13 -14 22 0 11 5
14 16 10 11 -4 18 1 21 14 3 11 9 20 14 20 5 0 8 3 8 7 -4 27 3 45 16 40 8 -4
17 -2 20 3 4 6 1 10 -6 10 -8 0 -8 4 1 15 11 13 15 13 21 3 10 -15 12 -3 13
80 1 28 -2 52 -6 52 -5 0 -8 -15 -8 -34 0 -19 -4 -45 -9 -58 -12 -29 -131
-157 -131 -140 0 6 4 12 10 12 5 0 7 14 5 31 -2 18 2 50 9 73 13 42 16 110 5
121 -9 8 -30 -46 -34 -86 -12 -126 -33 -229 -45 -229 -5 0 -4 15 1 33 17 57
30 217 18 217 -4 0 -9 -7 -11 -15 -2 -10 -7 -12 -17 -5 -12 7 -11 12 10 29 19
15 21 22 12 32 -10 10 -16 7 -32 -12 -11 -13 -21 -19 -22 -14 -6 52 -4 75 6
75 8 0 10 10 8 24 -4 18 -10 23 -22 18 -14 -5 -14 -4 -1 12 17 22 19 48 5 58
-6 5 -5 8 3 8 7 0 10 5 7 10 -9 15 15 42 32 36 8 -3 21 -2 31 3 9 5 24 12 33
14 8 3 34 38 57 78 33 56 41 79 37 101 -12 52 -30 31 -25 -29 1 -15 -4 -23
-14 -23 -9 0 -16 -6 -16 -14 0 -7 -7 -19 -15 -26 -8 -7 -12 -16 -9 -21 3 -5 0
-8 -8 -7 -7 2 -12 -3 -10 -10 3 -17 -23 -26 -42 -15 -14 7 -14 12 -1 36 10 19
10 25 2 20 -9 -5 -9 -3 0 8 8 9 10 29 6 52 -4 25 -2 37 6 37 8 0 10 -8 6 -21
-5 -15 -4 -19 4 -15 6 4 11 14 11 22 0 8 8 14 18 15 9 0 2 6 -16 12 -21 8 -29
16 -23 22 5 6 12 29 16 52 5 35 4 43 -8 43 -9 0 -18 -13 -22 -30 -5 -23 -10
-28 -19 -21 -13 11 -26 5 -26 -11 0 -5 4 -7 9 -4 22 14 22 -128 -1 -164 -7
-10 -8 -6 -4 16 3 17 -1 56 -8 86 -11 49 -11 59 4 88 9 18 15 43 12 56 -2 14
0 24 7 24 6 0 10 6 8 13 -1 7 7 11 21 9 14 -2 22 2 22 11 0 11 7 13 22 9 15
-3 19 -2 14 7 -5 7 -23 10 -49 7 -23 -3 -45 -5 -48 -5 -12 -2 -31 -60 -25 -76
3 -8 1 -15 -4 -15 -10 0 -11 5 -12 55 -1 56 2 65 21 65 34 0 59 111 30 134
-22 17 -21 54 1 66 27 14 26 54 -2 110 -24 47 -61 69 -94 56 -18 -7 -18 -8 -1
-17 9 -6 22 -7 28 -4 18 12 39 -16 39 -51 0 -36 15 -46 23 -17 3 10 5 4 6 -14
0 -17 -3 -35 -9 -38 -5 -3 -10 2 -10 11 0 25 -13 9 -15 -19 -1 -12 -6 -20 -11
-17 -10 6 -11 31 -1 80 6 31 5 33 -7 17 -23 -29 -29 -102 -12 -129 18 -28 8
-134 -15 -152 -9 -7 -14 -31 -13 -71 0 -68 -5 -105 -15 -105 -7 0 -33 123 -57
263 -8 47 6 48 30 2 11 -19 23 -35 28 -35 5 0 4 9 -2 20 -6 11 -8 25 -5 30 3
6 1 10 -5 10 -6 0 -8 6 -4 13 4 6 4 9 -1 5 -12 -11 -35 11 -35 33 0 11 6 19
13 19 6 1 20 17 29 38 15 32 16 37 3 45 -8 4 -15 16 -15 26 0 11 -7 21 -15 25
-8 3 -15 1 -15 -4 0 -6 6 -10 13 -10 9 0 9 -2 0 -8 -6 -4 -13 -20 -15 -36 -1
-16 -8 -31 -15 -33 -18 -6 -27 69 -28 217 0 74 -4 141 -8 148 -5 7 -3 12 4 12
7 0 9 11 5 34 -10 51 3 116 21 109 8 -3 11 -9 6 -12 -14 -9 -23 -40 -14 -45 7
-5 14 -25 26 -81 1 -5 3 -17 4 -25 1 -8 13 -24 28 -34 26 -19 26 -19 21 0 -3
10 -9 26 -13 36 -4 11 -1 16 11 15 9 -1 19 4 22 12 3 9 0 11 -7 7 -8 -6 -10 0
-5 19 4 18 2 30 -7 36 -9 5 -10 9 -2 9 14 0 9 51 -11 125 -8 28 -19 73 -24
100 -6 28 -13 62 -16 76 -3 14 -15 36 -26 49 -22 25 -26 40 -10 40 21 0 9 15
-13 16 -20 1 -23 -3 -25 -42 -1 -24 -11 -72 -22 -106 -11 -34 -20 -70 -20 -81
0 -11 -3 -17 -7 -13 -12 11 -13 40 -3 66 5 14 11 73 14 133 3 59 9 119 12 132
8 31 24 23 24 -11 0 -30 17 -64 31 -64 11 0 6 65 -11 120 -12 43 -13 74 0 45
7 -16 9 -11 9 20 1 23 -6 51 -16 64 -18 26 -20 80 -4 110 8 14 6 22 -8 35 -21
19 -31 12 -31 -20 0 -27 -20 -43 -21 -17 -2 39 -11 78 -21 90 -7 9 -7 13 1 13
8 0 10 8 6 21 -5 15 -4 19 4 15 15 -10 14 17 -1 32 -11 11 -20 56 -20 107 0
17 -7 20 -41 20 -23 0 -42 -5 -44 -12 -8 -22 -21 -14 -28 17 -4 16 -11 32 -16
35 -17 11 -10 47 11 52 27 7 26 45 -4 106 -13 26 -19 50 -15 53 16 10 9 23 -8
18 -16 -5 -16 -4 -2 8 19 16 14 39 -7 31 -8 -3 -14 0 -14 6 0 6 5 11 11 11 6
0 9 6 6 13 -2 6 -13 11 -23 10 -10 -1 -13 0 -7 3 15 7 7 141 -9 161 -5 7 -9
25 -8 40 3 45 1 53 -15 53 -10 0 -15 -11 -15 -35 0 -19 -4 -35 -10 -35 -5 0
-10 -6 -10 -14 0 -8 -7 -16 -15 -20 -23 -9 -18 21 7 38 12 9 18 19 14 23 -5 5
-11 2 -13 -4 -3 -7 -8 -13 -12 -13 -9 0 -32 47 -37 75 -2 11 -14 53 -26 93
-18 60 -20 76 -10 92 7 11 8 20 3 20 -5 0 -17 7 -25 16 -15 14 -16 13 -16 -8
0 -13 -7 -34 -16 -46 -8 -12 -17 -32 -19 -45 -5 -32 -17 -67 -22 -67 -22 0
-104 172 -89 187 3 3 9 -3 12 -13 10 -27 35 -54 45 -48 14 8 10 39 -10 84 -14
32 -17 49 -9 65 8 17 3 37 -21 93 -16 40 -33 89 -36 109 -7 41 -25 83 -35 83
-10 0 -29 -70 -23 -86 3 -8 0 -14 -6 -14 -6 0 -11 -10 -11 -23 0 -12 -7 -33
-16 -45 -20 -29 -35 -80 -25 -86 4 -3 15 13 25 34 10 22 22 40 27 40 5 0 -4
-26 -20 -58 -32 -64 -38 -88 -26 -116 6 -13 3 -23 -9 -31 -9 -7 -14 -19 -11
-26 3 -8 -3 -19 -14 -26 -18 -11 -20 -9 -26 30 -9 52 -25 84 -34 68 -4 -6 -7
4 -7 22 0 17 -10 53 -22 79 -23 48 -24 84 -5 203 7 46 8 44 43 -72 13 -40 26
-73 31 -73 15 0 10 48 -12 115 -11 36 -18 71 -16 77 3 7 8 -2 12 -20 8 -36 22
-49 36 -35 7 7 5 24 -5 49 -19 52 -25 80 -31 155 -9 104 -26 199 -36 199 -5 0
-9 11 -9 25 0 18 -5 25 -20 25 -20 0 -24 -8 -20 -47 1 -24 -26 -83 -39 -83 -4
0 -8 -6 -8 -12 -1 -30 -13 -71 -24 -84 -6 -8 -9 -17 -6 -21 4 -3 2 -12 -5 -20
-6 -7 -8 -17 -4 -20 4 -4 11 -1 16 7 8 13 10 13 10 -1 0 -8 -4 -19 -9 -25 -5
-5 -13 -26 -16 -46 -6 -31 -4 -38 9 -38 20 0 20 -1 -1 -45 -20 -43 -35 -46
-23 -5 7 24 6 30 -6 30 -10 0 -13 6 -10 18 11 34 8 78 -8 137 -21 77 -36 115
-47 115 -5 0 -8 3 -7 8 1 4 -10 31 -24 60 -15 29 -30 67 -34 85 -3 18 -16 44
-28 58 -11 15 -25 34 -31 43 -7 12 -25 17 -61 18 -43 0 -60 -5 -100 -33 -27
-19 -55 -32 -62 -31 -8 2 -28 20 -45 40 -61 69 -74 82 -86 82 -13 0 -14 83 -2
145 l8 40 7 -37 c5 -21 13 -38 18 -38 5 0 7 9 3 19 -11 35 -16 86 -21 221 -3
74 -7 141 -9 148 -7 21 -25 13 -25 -12 0 -14 -5 -28 -11 -32 -8 -4 -7 -9 2
-15 9 -5 9 -9 3 -9 -7 0 -14 -9 -17 -19 -3 -14 -1 -18 9 -14 9 3 14 -2 14 -14
0 -26 -10 -35 -25 -23 -8 7 -17 -2 -29 -31 -24 -55 -39 -38 -43 48 -2 38 -7
86 -13 108 -5 22 -18 78 -30 124 -11 47 -20 104 -20 127 0 51 -26 70 -35 26
-12 -56 -38 -149 -55 -199 -19 -54 -18 -65 7 -56 12 5 13 -2 8 -41 -8 -48 7
-65 20 -23 6 19 8 20 12 4 2 -10 -5 -36 -17 -59 l-21 -41 30 6 31 6 -6 -52
c-7 -59 -11 -68 -24 -47 -16 26 -64 83 -101 122 -21 20 -35 38 -33 41 2 2 -7
14 -21 27 -32 30 -35 85 -5 93 11 3 23 1 26 -4 10 -16 26 -10 20 9 -3 9 -8 44
-11 77 -4 33 -13 89 -22 125 -25 109 -39 202 -37 258 2 38 -2 52 -12 52 -7 0
-16 -12 -19 -27 -3 -16 -11 -46 -17 -68 -7 -22 -11 -43 -10 -47 1 -4 -4 -38
-12 -75 -19 -93 -12 -219 9 -154 3 12 10 21 15 21 12 0 -7 -50 -26 -71 -10
-11 -11 -19 -5 -23 5 -4 17 4 25 16 9 12 17 20 19 17 10 -10 15 -149 6 -149
-5 0 -9 11 -9 24 0 14 -5 28 -11 32 -8 4 -9 0 -4 -15 9 -30 -6 -26 -35 9 -14
17 -29 30 -33 30 -12 0 -37 27 -37 39 0 6 -7 11 -15 11 -8 0 -15 5 -15 10 0 6
-7 10 -15 10 -8 0 -19 9 -25 20 -6 11 -24 34 -40 50 -17 17 -31 41 -32 53 0
12 -2 34 -3 50 -3 35 6 34 27 -3 11 -19 25 -30 39 -30 18 0 20 4 14 28 -8 29
-32 146 -42 200 -3 21 -11 32 -22 32 -14 0 -16 13 -14 100 2 77 -1 100 -11
100 -8 0 -17 -25 -25 -71 -6 -39 -16 -80 -22 -91 -14 -26 -21 -148 -9 -148 11
0 30 59 27 84 -1 10 4 21 12 24 9 3 11 0 7 -7 -4 -7 -7 -68 -7 -137 l1 -126
-28 18 c-26 17 -106 79 -128 99 -6 6 -11 27 -11 48 0 20 -3 40 -6 44 -4 3 -7
15 -7 26 0 13 5 17 15 13 8 -3 15 -1 15 4 0 6 9 10 20 10 18 0 20 5 14 43 -3
23 -8 49 -10 57 -3 8 -8 37 -11 65 -2 27 -9 52 -14 53 -5 2 -9 19 -9 37 0 19
-4 36 -9 39 -17 11 -29 -17 -45 -104 -1 -3 -5 -10 -9 -17 -8 -13 -26 -89 -34
-145 -4 -31 -2 -38 11 -38 9 0 19 7 22 15 13 32 25 13 23 -35 -3 -70 -11 -77
-43 -40 -44 53 -292 253 -334 271 -13 5 -20 13 -17 19 3 5 2 10 -3 10 -6 0
-26 15 -46 33 l-37 32 56 60 c31 33 70 80 86 105 16 25 46 61 67 80 21 19 47
47 58 61 10 14 39 38 62 53 65 41 100 83 93 111 -9 32 -6 192 5 259 6 44 10
85 7 92 -2 7 5 26 17 42 21 28 21 33 10 128 -6 55 -13 140 -14 189 -3 103 -10
131 -40 161 -27 28 -94 38 -126 19z m89 -44 l35 -18 2 -84 c1 -46 9 -109 17
-139 21 -76 18 -174 -5 -178 -10 -2 -18 -8 -18 -14 0 -7 -4 -7 -13 1 -17 14
-38 -5 -29 -27 4 -11 1 -14 -10 -9 -16 6 -63 -34 -53 -45 4 -3 -8 -16 -24 -28
-17 -12 -31 -28 -31 -36 0 -8 -7 -14 -15 -14 -8 0 -15 -4 -15 -10 0 -5 -5 -10
-11 -10 -7 0 -30 -15 -53 -34 -33 -26 -46 -32 -64 -25 -12 5 -22 13 -22 18 0
24 -41 22 -71 -4 -26 -21 -40 -25 -80 -23 -45 3 -49 5 -49 29 0 31 -20 51 -54
53 -13 0 -24 3 -24 6 2 10 -16 45 -26 53 -8 6 -7 10 2 14 6 2 12 9 12 14 0 6
-6 7 -12 3 -7 -4 -9 -3 -5 1 4 5 13 10 20 11 53 7 187 104 187 133 0 6 4 11 9
11 19 0 201 205 201 226 0 17 95 121 107 117 7 -3 20 2 28 11 20 20 22 20 64
-3z m-1183 -2162 c3 -5 16 -9 29 -9 13 0 25 -4 27 -10 2 -5 35 -11 75 -12 39
-2 69 -6 67 -9 -2 -4 3 -9 11 -13 8 -3 15 -1 15 4 0 5 27 7 64 3 56 -5 67 -3
95 18 30 22 33 23 42 7 14 -26 90 -112 102 -117 5 -2 7 1 3 8 -5 7 -1 9 8 5 9
-3 16 -10 16 -16 0 -5 -4 -6 -10 -3 -5 3 -10 2 -10 -3 0 -5 16 -13 35 -19 26
-8 35 -8 35 0 0 7 27 -17 60 -52 33 -35 60 -69 60 -76 0 -26 35 -75 50 -70 20
6 44 -10 36 -23 -7 -11 47 -45 57 -36 3 3 16 -5 29 -18 14 -13 50 -43 81 -67
31 -24 68 -62 81 -85 32 -53 131 -148 178 -170 20 -10 49 -29 64 -42 14 -14
29 -22 32 -19 9 9 112 -97 112 -116 0 -9 11 -33 25 -53 14 -21 23 -41 20 -46
-3 -4 29 -31 70 -59 46 -31 75 -45 75 -37 0 9 7 12 20 9 11 -3 17 -9 14 -14
-3 -5 -11 -7 -17 -3 -7 3 -3 -2 7 -10 11 -9 39 -16 63 -16 40 0 49 -5 107 -62
34 -35 84 -75 109 -90 33 -19 53 -40 69 -72 15 -31 25 -42 30 -33 5 8 8 6 8
-8 0 -11 14 -29 30 -40 19 -12 42 -43 58 -78 15 -34 31 -56 39 -53 6 3 11 -3
10 -12 -1 -19 31 -72 44 -72 5 0 8 -3 8 -7 -3 -21 2 -26 12 -13 9 13 10 12 5
-3 -7 -22 13 -67 28 -61 7 3 23 -10 36 -28 13 -18 34 -41 47 -51 13 -10 23
-27 23 -37 0 -24 31 -90 42 -90 4 0 8 -12 8 -26 0 -14 4 -23 9 -19 10 5 41
-48 41 -70 0 -7 7 -19 16 -26 15 -12 16 -11 9 11 -7 24 -7 24 8 5 11 -14 12
-22 4 -27 -8 -5 -8 -10 0 -20 15 -18 41 -115 42 -158 3 -79 29 -200 44 -200 5
0 6 -8 3 -18 -4 -11 4 -34 19 -56 14 -20 25 -42 25 -47 0 -18 -24 -4 -35 19
-5 12 -16 21 -25 19 -8 -1 -19 8 -25 21 -6 13 -19 22 -32 22 -21 0 -29 14 -24
43 0 4 -3 7 -8 7 -4 0 -9 -51 -9 -114 0 -118 -8 -151 -30 -137 -11 6 -17 50
-21 143 -1 16 -9 17 -60 9 -3 -1 0 -6 7 -13 17 -17 15 -31 -3 -24 -19 7 -19 2
1 -53 9 -26 12 -56 8 -74 -4 -20 -3 -27 5 -23 12 8 15 -16 4 -28 -4 -3 -6 -28
-5 -54 2 -26 -2 -90 -7 -142 -12 -108 -4 -303 12 -293 7 4 7 -7 2 -33 -4 -21
-10 -64 -14 -94 -8 -69 -19 -48 -31 62 -5 43 -16 99 -25 124 -9 28 -16 81 -16
128 0 152 -4 214 -13 209 -5 -3 -6 9 -2 28 4 22 1 44 -9 63 -18 34 -19 39 -4
30 8 -4 9 1 4 15 -4 12 -7 48 -7 79 0 31 -3 61 -6 66 -3 5 -4 43 -3 84 2 53
-2 78 -11 84 -9 7 -9 11 -2 14 16 7 5 105 -15 142 -6 12 -11 31 -11 44 0 13
-4 28 -9 34 -5 5 -17 38 -26 74 -9 35 -22 74 -28 85 -6 11 -12 22 -12 25 0 3
-6 19 -12 35 -7 17 -17 57 -23 90 -5 32 -15 64 -20 69 -6 6 -10 20 -10 32 0
30 -33 105 -56 127 -78 73 -132 118 -151 123 -12 3 -24 12 -27 20 -3 8 -11 14
-18 12 -7 -1 -26 1 -41 5 -17 5 -34 4 -42 -3 -7 -6 -19 -9 -26 -8 -9 2 -13
-15 -16 -58 -1 -34 -7 -73 -13 -88 -8 -21 -6 -33 10 -59 11 -17 20 -42 20 -55
0 -45 -40 -136 -77 -175 l-38 -38 3 -105 c1 -67 -1 -104 -8 -104 -6 0 -13 8
-16 18 -3 9 -15 35 -27 57 -11 22 -27 54 -36 72 -9 18 -22 32 -30 33 -8 0 -11
6 -7 16 3 9 -3 28 -14 44 -11 15 -20 39 -20 53 0 13 -7 31 -16 38 -11 9 -14
23 -10 47 3 19 1 42 -4 51 -4 9 -11 37 -15 61 -9 69 -17 104 -25 115 -4 6 -18
42 -30 80 -12 39 -42 105 -66 147 -23 43 -45 86 -49 97 -11 36 -29 42 -69 26
-20 -8 -36 -20 -36 -27 0 -13 -29 -48 -40 -48 -4 0 -10 18 -14 41 -4 23 -15
60 -26 82 -11 22 -20 47 -20 54 0 7 -16 33 -35 58 -37 50 -55 102 -59 174 -3
67 -24 121 -46 121 -10 0 -21 7 -24 16 -4 10 -2 13 7 8 37 -23 -139 167 -203
218 -62 50 -171 112 -214 122 -16 4 -45 21 -65 37 -45 39 -131 75 -218 93 -38
8 -75 18 -84 21 -23 9 -29 -24 -23 -115 4 -52 11 -84 25 -102 10 -15 19 -32
19 -38 0 -6 5 -8 12 -4 8 5 9 2 4 -11 -4 -11 -2 -39 3 -64 6 -25 20 -90 31
-143 12 -53 26 -98 32 -100 5 -2 12 -24 15 -48 4 -25 17 -64 30 -88 13 -23 21
-47 18 -52 -8 -14 13 -218 26 -241 12 -24 -4 -138 -25 -178 l-13 -23 -22 31
c-12 17 -19 35 -16 41 3 5 3 16 -2 23 -4 6 -8 17 -8 22 -1 6 -5 22 -9 38 -5
18 -4 32 4 42 7 8 8 15 3 15 -6 0 -13 25 -17 56 -8 73 -36 121 -92 164 -76 58
-122 107 -129 140 -9 41 -137 173 -159 164 -9 -3 -23 1 -31 10 -9 9 -20 16
-25 16 -13 0 -17 -32 -8 -58 5 -15 3 -33 -5 -50 -8 -15 -12 -35 -10 -44 6 -23
2 -23 -57 9 -33 18 -49 32 -45 41 3 8 2 19 -2 25 -4 6 -8 29 -9 52 -1 22 -8
54 -15 70 -7 17 -11 34 -10 39 1 5 -5 6 -14 3 -9 -4 -15 -1 -15 8 0 8 -6 15
-13 15 -19 0 -127 99 -127 116 0 8 -4 14 -10 14 -5 0 -7 7 -4 15 4 8 2 15 -4
15 -12 0 -54 78 -48 88 2 4 7 29 10 56 4 27 9 53 12 57 5 8 7 23 25 145 l12
81 71 12 c39 6 109 12 156 12 52 1 95 6 112 15 32 17 68 18 68 3 0 -8 4 -8 13
-2 6 5 27 8 45 6 19 -1 41 1 49 6 17 9 50 4 59 -10z m2124 -227 l20 -25 6 32
c4 17 11 34 15 37 5 3 9 15 9 27 0 20 1 20 18 4 11 -12 14 -20 6 -25 -15 -9
-45 -68 -38 -75 3 -3 0 -32 -7 -66 l-11 -60 -29 27 c-16 15 -29 32 -29 38 0 7
-7 15 -16 18 -15 6 -16 21 -11 129 4 67 7 136 8 152 0 17 9 -19 20 -79 13 -69
27 -118 39 -134z m1050 -1398 c0 -8 5 -14 10 -14 6 0 10 -15 10 -34 0 -19 5
-38 12 -42 7 -5 9 -2 5 8 -4 12 1 15 18 14 20 -1 23 -5 18 -23 -3 -15 0 -25 9
-28 12 -5 13 -15 5 -57 -9 -43 -8 -53 5 -61 12 -8 13 -16 4 -40 -8 -23 -8 -31
2 -34 13 -5 15 -34 6 -70 -6 -23 -24 -32 -24 -12 0 5 -18 37 -40 69 -22 32
-40 61 -40 64 0 3 -15 27 -33 53 -37 55 -45 83 -22 83 17 0 20 16 4 26 -7 4
-9 28 -4 73 4 36 7 73 7 81 -1 41 10 42 29 1 10 -24 19 -49 19 -57z m202 -219
c2 3 6 -8 7 -25 1 -16 2 -40 3 -52 1 -13 6 -26 12 -30 6 -4 6 -16 -2 -33 -19
-41 -15 -76 8 -82 l21 -6 -21 -19 c-15 -14 -18 -23 -11 -32 6 -7 8 -16 4 -19
-3 -4 5 -7 20 -7 19 0 25 -5 24 -19 0 -11 -5 -17 -9 -15 -5 3 -11 -3 -15 -13
-8 -21 -35 -43 -45 -37 -15 10 -66 124 -55 124 7 0 2 8 -11 18 -22 17 -22 19
-8 47 l16 30 0 -35 c0 -19 7 -44 15 -54 13 -18 15 -4 15 128 0 123 2 147 13
137 8 -6 16 -9 19 -6z m148 -349 c0 -8 -4 -17 -9 -20 -9 -6 4 -109 19 -143 5
-13 16 -23 25 -23 18 0 19 -14 5 -41 -8 -13 -7 -19 0 -19 11 0 9 -12 -9 -90
-13 -57 -14 -67 -1 -54 5 5 11 23 13 40 2 16 6 34 9 40 4 5 9 27 13 49 11 64
14 72 25 55 13 -20 12 -77 0 -85 -8 -5 -7 -12 2 -22 11 -14 10 -15 -8 -9 -19
6 -21 3 -19 -31 3 -53 3 -53 20 -53 12 0 15 -13 14 -62 -1 -35 -4 -76 -8 -93
-6 -29 -7 -27 -30 33 -19 51 -21 65 -11 75 10 9 11 9 5 -2 -5 -9 -4 -12 3 -7
20 12 13 29 -9 23 -13 -4 -22 0 -25 11 -3 9 -9 24 -14 33 -5 9 -7 25 -4 35 2
11 -6 44 -18 74 -20 49 -23 69 -20 178 3 98 6 122 18 122 8 0 14 -6 14 -14z"/>
<path d="M5100 10385 c-14 -8 -33 -14 -43 -15 -27 0 -97 -43 -97 -59 0 -11 -3
-11 -17 0 -10 7 -15 10 -11 5 4 -5 2 -18 -3 -29 -9 -16 -13 -17 -20 -6 -6 11
-11 11 -21 1 -6 -6 -22 -12 -34 -12 -12 0 -24 -7 -28 -15 -3 -8 -1 -15 5 -15
6 0 7 -5 4 -11 -5 -6 -11 -4 -19 7 -19 26 -38 8 -32 -29 4 -18 3 -25 -2 -15
-6 16 -10 16 -35 3 -52 -27 -198 -158 -192 -173 4 -12 3 -12 -9 -3 -12 10 -24
7 -60 -14 -53 -31 -58 -37 -50 -59 9 -24 65 -21 71 3 3 13 11 17 24 14 12 -4
19 0 19 9 0 8 11 21 25 28 14 7 25 17 25 22 0 4 5 8 11 8 6 0 35 20 64 44 42
34 51 46 38 50 -8 4 -22 1 -29 -5 -19 -16 -18 -1 2 18 10 10 18 12 22 6 10
-14 42 -24 42 -13 0 6 8 10 18 10 13 0 14 2 3 9 -11 7 -9 10 8 16 11 3 21 14
21 22 0 9 3 14 6 10 4 -3 21 4 38 17 52 40 108 67 123 62 11 -4 13 -1 8 15 -6
17 -4 20 13 15 11 -4 24 0 32 9 7 8 19 15 27 15 8 0 25 12 38 26 14 15 25 23
25 18 0 -5 5 -2 10 6 9 13 11 13 20 0 5 -8 10 -11 10 -6 0 5 12 -4 27 -19 28
-27 83 -60 83 -50 0 4 13 -3 29 -14 16 -12 32 -21 36 -21 5 0 20 -12 35 -27
15 -16 40 -39 56 -53 16 -14 38 -36 49 -50 11 -14 32 -33 46 -42 17 -11 31
-34 40 -64 9 -29 21 -49 32 -52 19 -5 22 -17 7 -27 -10 -6 -9 -17 13 -108 9
-40 12 -45 19 -28 4 12 3 33 -3 48 -5 14 -8 40 -5 56 3 17 -1 42 -9 56 -34 65
-55 112 -52 121 5 19 -37 66 -91 105 -31 22 -79 61 -107 86 -31 30 -66 51 -93
59 -24 6 -59 20 -78 31 -41 22 -51 23 -84 4z"/>
<path d="M4390 9913 c0 -7 -10 -13 -22 -13 -30 0 -52 -15 -44 -29 5 -7 -1 -10
-16 -8 -18 1 -22 -2 -20 -17 3 -15 -1 -18 -19 -13 -38 10 -100 -34 -164 -117
-27 -36 -105 -124 -147 -167 -9 -10 -14 -19 -12 -22 6 -6 -76 -77 -88 -77 -4
0 -8 -7 -8 -15 0 -8 -4 -15 -10 -15 -28 0 -262 -224 -254 -244 3 -7 -2 -13
-10 -13 -8 0 -12 5 -9 11 3 6 -6 0 -20 -13 -15 -13 -24 -28 -21 -32 2 -5 -4
-14 -16 -21 -11 -7 -20 -18 -20 -25 0 -6 -12 -21 -27 -33 -16 -12 -28 -28 -28
-35 0 -7 -18 -30 -39 -51 -38 -38 -61 -78 -57 -101 1 -6 -3 -14 -9 -18 -6 -4
-7 1 -4 12 4 13 -1 11 -16 -7 -45 -54 -49 -60 -44 -75 4 -9 3 -15 -2 -14 -19
3 -50 -14 -67 -37 -10 -13 -13 -24 -7 -24 5 0 10 -4 10 -10 0 -5 -6 -7 -14 -4
-8 3 -33 -17 -62 -52 -27 -32 -80 -91 -119 -132 -39 -42 -69 -83 -68 -92 2
-11 -6 -20 -20 -24 -18 -5 -19 -8 -8 -15 13 -8 12 -12 -5 -28 -39 -34 -140
-174 -177 -243 -10 -19 -24 -39 -31 -45 -7 -5 -43 -55 -81 -110 -113 -165
-130 -188 -141 -192 -10 -3 -9 7 12 156 6 39 14 35 23 -10 4 -18 13 -35 20
-37 10 -3 12 1 7 19 -3 13 -9 43 -12 67 -6 37 -5 42 13 42 27 0 33 8 24 34 -5
12 -12 43 -15 70 -4 27 -11 57 -17 67 -5 11 -11 38 -13 61 -7 73 -17 107 -31
102 -14 -6 -69 -121 -79 -166 -5 -23 -3 -28 14 -28 11 0 20 5 20 12 0 6 2 9 5
7 2 -3 -7 -40 -20 -83 -13 -44 -22 -83 -19 -88 10 -15 -7 -71 -18 -60 -6 6 -6
17 1 30 9 16 7 19 -7 18 -14 -1 -18 10 -20 62 -2 52 -6 63 -19 60 -18 -3 -45
-82 -40 -114 2 -11 -2 -25 -9 -32 -7 -7 -11 -26 -9 -43 2 -17 0 -39 -6 -48 -5
-9 -14 -29 -19 -45 -6 -16 -13 -27 -15 -24 -4 4 -13 87 -15 131 0 9 -5 17 -11
17 -6 0 -8 -7 -5 -16 3 -8 2 -12 -4 -9 -15 9 -28 -25 -60 -157 -35 -143 -35
-138 -14 -138 11 0 14 -5 9 -17 -17 -42 -18 -102 -1 -118 18 -18 21 -35 6 -35
-16 0 -12 -19 10 -42 18 -20 18 -22 2 -34 -10 -8 -12 -13 -4 -14 7 0 12 -14
12 -35 0 -24 6 -39 20 -47 22 -14 27 -30 7 -22 -8 3 -27 -21 -52 -66 -21 -38
-41 -70 -45 -70 -3 0 -7 16 -8 36 -2 20 1 33 7 30 12 -8 22 20 15 39 -5 11 -2
13 10 9 12 -5 16 0 16 22 0 36 -32 167 -43 175 -4 3 -5 13 -1 22 8 22 -36 119
-52 113 -7 -3 -10 2 -7 15 3 10 2 26 -1 35 -5 13 -9 14 -21 4 -8 -7 -15 -21
-15 -30 0 -10 -16 -60 -35 -110 -40 -106 -40 -104 -20 -96 9 3 18 -1 21 -9 6
-15 26 -22 22 -7 -3 10 20 72 26 72 3 0 5 -15 4 -34 -1 -25 -10 -43 -35 -66
-27 -26 -33 -28 -33 -13 0 14 -5 11 -20 -12 -11 -16 -18 -39 -16 -50 3 -11 -2
-29 -10 -39 -21 -29 -18 -49 6 -41 30 10 42 -2 28 -28 -7 -12 -11 -25 -10 -29
1 -3 -5 -12 -13 -18 -8 -7 -15 -18 -15 -26 0 -22 43 29 74 89 17 31 32 54 34
52 11 -10 -10 -95 -23 -95 -8 0 -28 -18 -46 -40 -24 -29 -35 -37 -45 -29 -14
12 -29 -4 -19 -21 11 -18 63 -12 70 9 3 11 15 19 30 19 25 0 25 -1 21 -83 -2
-46 -7 -88 -11 -95 -4 -7 -1 -16 6 -21 10 -6 8 -9 -8 -9 -19 0 -31 -18 -73
-105 -28 -58 -52 -105 -53 -105 -2 0 -4 14 -4 30 0 17 4 30 8 30 5 0 7 6 5 13
-3 6 -7 40 -10 75 -4 46 -3 61 6 56 10 -7 8 14 -8 68 -4 13 -1 16 10 12 18 -7
23 25 7 42 -5 5 -12 25 -15 44 -3 19 -14 42 -26 52 -21 17 -28 34 -9 22 7 -4
9 -2 5 7 -3 8 -9 22 -12 32 -7 19 -24 23 -24 6 0 -6 -7 -8 -16 -5 -8 3 -13 2
-10 -3 3 -5 1 -33 -5 -62 -11 -59 -19 -111 -22 -146 -1 -13 -6 -23 -11 -23 -6
0 -1 -7 10 -16 10 -8 14 -13 8 -10 -6 3 -21 -9 -33 -25 -18 -25 -22 -38 -16
-67 4 -20 14 -41 23 -48 14 -10 13 -14 -6 -39 -34 -43 -25 -128 13 -132 11 -1
14 0 8 3 -18 8 -16 24 2 24 8 0 15 5 15 11 0 5 -4 7 -10 4 -14 -9 -13 8 2 23
6 6 9 15 5 19 -4 3 -14 -2 -23 -13 -14 -18 -15 -17 -9 13 3 17 15 48 26 70 18
34 18 39 3 50 -17 13 -9 38 22 63 15 13 16 5 10 -110 -3 -69 -10 -142 -15
-162 -8 -32 -6 -36 10 -35 11 1 19 6 20 12 1 5 2 17 3 25 2 8 3 31 4 52 2 30
5 35 21 31 14 -4 19 -13 18 -39 -1 -25 -5 -33 -15 -29 -7 2 -10 0 -7 -5 3 -6
13 -10 21 -10 18 0 18 -14 -1 -30 -13 -11 -14 -10 -9 4 3 9 1 16 -4 16 -18 0
-24 -20 -12 -35 10 -12 9 -15 -4 -15 -15 0 -20 -11 -17 -37 1 -7 -5 -10 -12
-7 -15 6 -31 -22 -21 -37 3 -5 0 -8 -8 -7 -7 2 -17 -11 -22 -29 -6 -18 -16
-33 -22 -33 -7 0 -16 -5 -20 -11 -4 -8 1 -9 17 -4 21 7 22 6 10 -9 -7 -9 -21
-16 -30 -16 -12 0 -13 -2 -4 -8 10 -7 10 -14 0 -35 -6 -15 -15 -27 -19 -27 -4
0 -5 -7 -2 -15 4 -8 2 -15 -4 -15 -9 0 -28 -56 -24 -72 1 -3 -5 -11 -12 -17
-11 -9 -14 12 -15 120 -1 73 -4 143 -7 155 -4 13 -2 24 4 24 5 0 13 -15 16
-33 7 -36 31 -76 40 -66 12 12 9 73 -10 189 -3 19 -7 55 -9 80 -2 25 -8 65
-13 90 -5 25 -10 64 -11 88 -1 24 -6 54 -11 67 -11 30 -35 34 -27 5 3 -11 1
-22 -3 -25 -11 -7 -7 -92 5 -102 4 -5 5 0 2 10 -4 9 -3 17 2 17 11 0 21 -36
21 -75 0 -33 -20 -22 -23 13 -2 35 -35 34 -46 -2 -17 -50 -41 -146 -41 -161 0
-22 33 -18 48 5 10 16 10 20 0 20 -14 0 10 20 25 20 13 0 7 -38 -9 -54 -8 -9
-11 -16 -5 -16 6 0 11 -5 11 -11 0 -5 -5 -7 -10 -4 -6 3 -13 -2 -17 -12 -4
-10 -17 -34 -30 -54 -14 -21 -21 -43 -17 -52 8 -21 26 -12 22 11 -2 10 4 17
12 17 8 0 16 -10 18 -23 2 -14 -1 -22 -10 -20 -7 2 -12 -5 -12 -14 1 -10 -2
-16 -6 -13 -5 3 -11 -17 -15 -45 -5 -36 -11 -50 -23 -50 -20 0 -7 -13 18 -17
22 -3 40 24 40 61 0 14 5 26 10 26 6 0 10 11 10 25 0 14 4 25 8 25 5 0 10 -46
11 -102 1 -56 6 -109 10 -117 5 -9 6 -21 4 -28 -2 -6 1 -15 8 -19 9 -5 10 -2
5 12 -5 14 -4 16 4 8 16 -16 1 -46 -22 -41 -15 4 -18 1 -13 -14 4 -12 1 -21
-9 -25 -11 -4 -14 -14 -10 -30 4 -15 2 -24 -6 -24 -7 0 -10 -7 -6 -15 3 -8 2
-14 -2 -14 -18 3 -22 -3 -12 -20 6 -13 7 -20 0 -23 -6 -2 -30 -52 -55 -112
-24 -59 -47 -111 -50 -115 -4 -3 -5 74 -3 171 2 98 5 173 6 168 2 -6 9 -10 17
-10 7 0 18 -7 25 -15 7 -8 19 -15 26 -15 23 0 13 72 -14 98 -12 13 -22 21 -22
20 0 -2 4 -18 9 -36 5 -17 6 -32 2 -32 -11 0 -30 45 -37 91 -4 21 -11 42 -16
46 -12 7 -29 -17 -21 -30 3 -5 1 -19 -5 -30 -6 -12 -18 -39 -26 -59 -12 -30
-18 -36 -36 -31 -20 5 -21 4 -10 -16 6 -13 9 -29 6 -37 -5 -13 5 -19 27 -15 4
0 7 -6 7 -14 0 -8 -5 -15 -10 -15 -6 0 -8 -10 -5 -23 4 -12 1 -36 -5 -51 -16
-44 -22 -94 -11 -100 9 -6 48 101 43 119 -6 16 8 75 18 75 5 0 7 -61 5 -137
-3 -87 -1 -141 6 -149 6 -7 8 -18 4 -24 -3 -5 1 -10 9 -10 9 0 16 -4 16 -10 0
-5 -3 -9 -7 -9 -5 1 -13 1 -20 0 -13 -1 -85 -220 -87 -263 -1 -14 -4 -24 -7
-22 -3 2 -11 -12 -16 -31 -8 -25 -8 -35 1 -39 6 -2 3 -5 -8 -5 -11 -1 -16 -6
-13 -15 3 -7 -5 -23 -19 -35 -18 -15 -24 -17 -24 -7 0 8 5 18 10 21 12 7 4 25
-11 25 -6 0 -9 -19 -8 -43 2 -24 -1 -48 -5 -55 -4 -7 -3 -12 3 -12 6 0 8 -12
4 -30 -4 -22 -2 -30 8 -30 11 0 11 -2 -1 -10 -19 -12 -42 -110 -26 -110 6 0 4
-5 -4 -10 -8 -5 -11 -10 -6 -10 4 0 1 -11 -8 -25 -9 -14 -12 -25 -6 -25 6 0
13 7 16 15 8 20 24 19 24 0 0 -9 -10 -20 -22 -25 -13 -5 -19 -9 -15 -9 5 -1 1
-8 -8 -17 -15 -15 -18 -15 -41 6 -14 14 -24 35 -24 52 0 32 -18 53 -73 86 -48
28 -58 28 -91 -3 -26 -24 -34 -45 -17 -45 12 0 7 -70 -6 -96 -12 -21 -12 -36
2 -67 4 -9 5 -26 2 -37 -3 -11 -2 -22 2 -25 4 -2 6 -18 3 -35 -3 -22 0 -30 11
-30 21 0 31 58 12 77 -19 18 -19 24 0 17 19 -8 21 26 3 44 -10 10 -10 17 0 33
7 11 10 24 7 29 -3 5 -1 18 4 28 7 13 7 22 -1 30 -8 8 -7 19 2 41 7 17 15 31
19 31 4 0 23 -14 44 -31 27 -22 37 -38 35 -53 -3 -20 26 -58 54 -69 10 -4 9
-9 -4 -20 -21 -17 -24 -29 -5 -22 9 4 11 -20 10 -102 -3 -139 -7 -168 -23
-168 -16 0 -20 16 -28 123 -5 56 -12 86 -22 92 -22 13 -27 -4 -24 -71 2 -50 0
-59 -13 -55 -8 3 -23 6 -33 6 -10 0 -20 8 -23 18 -4 16 -4 16 -12 -1 -11 -25
10 -67 34 -67 11 0 23 -4 26 -10 8 -13 25 -13 25 0 0 5 -12 13 -26 16 -21 6
-23 8 -11 15 26 15 47 -2 58 -47 10 -40 19 -49 42 -45 4 0 7 -6 7 -15 0 -12
-3 -14 -13 -6 -16 14 -32 3 -39 -25 -5 -17 1 -28 20 -43 l27 -21 -25 6 c-25 6
-25 6 -5 -11 11 -9 16 -18 10 -20 -5 -2 -10 -22 -9 -44 1 -39 0 -40 -32 -40
-38 0 -54 19 -54 65 0 8 -20 25 -45 37 -36 17 -50 20 -72 12 -17 -6 -27 -17
-27 -27 1 -9 -2 -15 -6 -12 -10 6 -17 -24 -12 -48 4 -18 50 -43 60 -32 3 3 -4
12 -16 21 -48 33 -15 61 49 41 30 -9 39 -17 39 -35 0 -16 10 -27 35 -39 25
-12 35 -23 35 -39 0 -13 5 -26 10 -29 7 -4 7 -11 2 -18 -5 -7 -11 -19 -15 -28
-4 -12 1 -15 21 -12 26 4 26 4 -3 -10 -23 -11 -31 -21 -32 -43 l-1 -29 13 30
c14 29 14 29 14 5 1 -29 -8 -45 -29 -53 -12 -4 -12 -6 2 -6 11 -1 15 -7 11
-21 -12 -47 -38 -6 -41 65 -4 84 -8 110 -15 108 -4 -2 -11 -3 -16 -3 -11 0 -2
-87 12 -120 4 -8 8 -29 10 -45 2 -17 7 -37 11 -43 4 -7 2 -19 -4 -27 -10 -12
-10 -15 -1 -15 18 0 41 -26 41 -46 0 -10 7 -26 17 -36 15 -17 15 -18 -3 -19
-10 0 -13 -3 -7 -6 9 -3 10 -10 3 -24 -6 -10 -13 -68 -17 -129 -3 -60 -7 -110
-9 -110 -14 0 -54 25 -54 34 -1 18 -38 61 -47 53 -4 -5 -1 -12 7 -18 13 -8 13
-11 -3 -20 -24 -14 -53 -78 -56 -122 0 -10 -6 -15 -11 -12 -7 4 -8 -3 -4 -22
13 -56 44 -69 36 -15 -2 16 4 46 14 68 10 21 18 46 19 54 1 8 3 21 4 27 0 8
19 -1 44 -20 43 -32 43 -33 40 -87 -2 -30 -4 -65 -4 -77 -1 -13 -6 -23 -11
-23 -6 0 -5 -6 2 -15 14 -16 4 -119 -10 -110 -5 3 -6 15 -1 26 9 27 -20 171
-36 176 -9 3 -11 -20 -9 -94 4 -119 4 -116 16 -108 5 3 10 2 10 -4 0 -5 -4
-12 -9 -15 -4 -3 -6 -17 -3 -31 4 -22 1 -25 -27 -25 -38 0 -41 -15 -5 -24 16
-4 24 -12 21 -20 -10 -24 5 -26 24 -3 10 12 18 17 19 11 0 -6 -3 -14 -6 -17
-4 -4 -8 -53 -9 -109 -1 -57 -7 -164 -13 -238 -7 -75 -10 -224 -7 -335 2 -110
5 -271 7 -357 2 -86 6 -159 9 -163 7 -6 2 -163 -6 -183 -3 -8 0 -12 7 -10 12
4 38 -14 38 -26 0 -2 -11 -3 -25 0 -32 6 -33 -14 -2 -21 29 -8 161 0 176 10
18 10 100 15 106 5 5 -8 160 -6 225 3 19 3 80 8 135 12 117 7 135 11 135 31 0
8 5 14 10 14 6 0 10 9 10 20 0 11 -4 20 -10 20 -5 0 -10 5 -10 11 0 5 4 8 9 5
13 -8 18 23 10 64 -3 19 -7 29 -8 23 0 -7 -6 -13 -12 -13 -6 0 -9 6 -7 12 3 7
-1 24 -9 38 -12 23 -11 25 10 31 22 5 22 5 2 17 -11 6 -14 12 -7 12 15 0 18
200 2 200 -5 0 -10 5 -10 11 0 5 4 8 9 5 11 -7 21 17 13 31 -4 6 -9 108 -10
226 -4 186 -2 215 11 220 11 4 15 18 14 46 -1 23 -5 41 -9 41 -4 0 -8 8 -8 18
0 14 2 15 10 2 8 -13 10 -12 11 5 4 66 3 164 -3 187 -3 14 -3 29 0 33 4 3 5
22 3 42 -2 29 0 35 13 30 20 -8 20 0 2 19 -8 8 -13 26 -11 42 2 15 4 41 4 59
1 26 4 31 19 27 16 -5 16 -5 0 9 -13 10 -14 17 -6 25 6 6 12 55 14 110 2 54 6
107 10 116 4 11 1 22 -7 27 -11 7 -11 9 -1 9 10 0 12 8 7 30 -5 22 -3 30 7 30
11 0 11 2 -1 9 -10 6 -10 13 -3 28 6 11 10 51 10 89 -2 67 6 137 18 155 3 5
-2 12 -10 15 -9 3 -13 10 -10 15 3 5 9 7 13 5 4 -3 8 7 9 22 1 23 20 113 36
172 3 8 5 23 5 33 1 9 7 17 14 17 8 0 14 6 14 13 1 40 23 163 47 262 9 33 15
74 16 91 0 19 6 34 15 38 8 3 15 15 15 27 0 13 18 79 40 148 21 69 46 153 55
186 8 33 31 102 51 153 40 102 55 113 109 70 25 -19 27 -26 22 -67 -4 -25 -9
-57 -13 -71 -15 -61 -8 -113 21 -144 14 -15 30 -24 35 -21 6 3 10 1 10 -5 0
-6 4 -9 9 -6 13 8 21 -53 22 -154 2 -196 31 -336 75 -365 25 -16 26 -16 19 4
-4 12 -2 21 4 21 6 0 11 5 11 11 0 7 16 27 35 45 25 25 30 34 17 34 -15 0 -17
13 -17 100 0 55 3 100 8 100 12 0 8 38 -5 43 -10 4 -10 6 0 6 6 1 12 10 12 21
0 13 -5 17 -14 14 -17 -7 -27 -134 -11 -134 7 0 7 -3 0 -8 -14 -10 -35 -73
-35 -103 0 -14 5 -30 12 -37 8 -8 9 -12 1 -12 -6 0 -14 -14 -18 -31 -7 -33
-27 -35 -31 -3 -1 10 -7 37 -13 59 -18 65 -23 123 -25 252 -1 130 2 122 -61
183 -37 36 -43 71 -26 168 l15 85 -30 24 c-16 14 -42 36 -58 49 -33 28 -47 27
-61 -4 -13 -29 -25 -28 -26 3 -1 14 -2 31 -3 38 -1 6 13 55 30 108 20 58 35
129 40 180 8 101 15 120 54 162 16 18 35 48 41 67 6 19 26 67 44 105 18 39 38
91 46 118 7 26 17 47 20 47 4 0 11 15 14 33 4 17 11 37 16 43 12 14 89 231 96
269 3 17 9 35 13 40 4 6 11 29 15 52 4 29 12 43 26 46 15 4 19 14 19 45 0 30
8 50 35 83 19 24 35 48 35 53 0 5 11 23 24 40 47 62 91 166 100 236 2 19 8 43
12 54 4 11 2 22 -7 28 -11 8 -11 9 3 5 24 -8 52 25 35 43 -10 10 -9 12 6 7 10
-4 16 -3 12 2 -9 15 6 41 24 41 14 0 14 2 1 10 -13 8 -12 10 3 10 9 0 17 -5
17 -11 0 -5 5 -7 11 -4 6 4 8 14 5 22 -5 11 -2 13 9 9 20 -7 85 53 85 78 0 13
5 16 21 11 17 -6 20 -4 15 12 -5 15 1 22 26 32 18 7 43 29 56 49 39 62 73 97
81 83 6 -9 11 -8 20 3 15 18 68 46 86 46 7 0 15 7 19 15 3 8 12 12 19 9 8 -3
17 2 21 11 4 11 12 14 26 10 12 -4 20 -2 20 5 0 6 4 9 9 6 12 -8 71 14 71 26
0 6 7 8 15 5 8 -4 27 0 42 8 15 8 34 15 41 15 7 0 10 5 6 12 -4 6 -3 8 4 4 12
-7 62 13 62 25 0 4 10 9 23 11 14 2 23 11 25 26 3 18 7 21 17 12 18 -15 175
57 168 77 -3 7 0 13 6 13 6 0 11 -4 11 -10 0 -14 16 -12 33 5 8 8 17 12 20 9
10 -11 74 16 97 41 13 14 34 25 47 25 14 0 21 4 18 10 -3 6 1 10 9 10 9 0 25
11 37 24 16 18 29 23 61 21 45 -3 102 17 115 39 4 7 19 17 32 21 16 5 21 4 17
-4 -4 -6 -2 -11 3 -11 6 0 11 6 11 14 0 8 12 17 26 20 14 4 44 24 68 46 43 40
116 78 116 61 0 -14 38 -20 44 -7 3 7 5 7 5 -1 1 -19 51 -16 51 2 0 8 4 15 10
15 5 0 7 -7 3 -16 -5 -14 -3 -15 15 -5 11 6 34 9 52 7 17 -2 36 2 43 8 7 7 20
15 30 19 24 9 44 -2 26 -14 -10 -6 -8 -9 8 -9 12 0 34 -5 48 -12 22 -10 28 -9
36 3 8 11 12 11 16 2 7 -18 103 -17 130 2 13 9 24 11 28 6 8 -14 37 -1 31 14
-6 17 59 25 158 18 69 -4 78 -3 73 11 -4 9 -2 16 2 16 5 0 11 -6 14 -13 4 -11
21 -11 89 -2 46 6 89 14 95 18 7 5 12 1 12 -10 4 -134 1 -403 -4 -418 -21 -61
-28 -75 -38 -75 -6 0 -22 -10 -35 -22 -17 -16 -26 -19 -29 -10 -3 6 -9 12 -14
12 -6 0 -8 -4 -4 -9 3 -6 -4 -15 -15 -21 -11 -6 -20 -17 -20 -24 0 -8 -15 -19
-32 -27 -18 -7 -35 -15 -38 -19 -3 -3 -21 -18 -40 -34 -19 -16 -51 -52 -72
-80 -21 -28 -42 -57 -48 -63 -6 -7 -9 -13 -6 -13 3 0 -1 -17 -8 -37 -7 -21
-11 -44 -9 -50 3 -7 0 -13 -5 -13 -8 0 -27 -87 -25 -117 0 -7 -3 -13 -8 -13
-5 0 -9 -7 -9 -15 0 -10 -10 -14 -35 -13 -19 1 -35 5 -35 10 0 4 6 7 13 6 7
-2 12 10 13 32 1 19 6 54 11 77 6 23 7 45 3 50 -4 4 -3 42 2 83 5 41 9 104 9
139 0 52 -4 66 -22 82 -17 15 -25 16 -43 7 -25 -14 -46 -40 -40 -50 3 -5 0 -8
-5 -8 -6 0 -11 -11 -11 -24 0 -13 -9 -34 -19 -48 -11 -13 -23 -36 -26 -51 -4
-14 -17 -29 -28 -33 -12 -4 -49 -24 -81 -45 -33 -22 -65 -39 -71 -39 -6 0 -23
-6 -38 -12 -22 -11 -28 -22 -33 -60 -4 -26 -9 -47 -13 -46 -21 2 -29 -5 -34
-29 -5 -27 7 -53 24 -53 5 0 9 7 9 15 0 8 4 15 10 15 5 0 7 6 4 13 -8 22 32
103 63 124 15 11 51 28 78 38 28 11 65 27 83 37 17 10 32 15 32 12 0 -4 7 -1
15 6 17 14 20 35 4 24 -7 -4 -10 -3 -7 2 21 45 34 70 40 74 3 3 6 12 6 20 -3
42 15 78 41 83 47 10 47 8 22 -223 -27 -255 -26 -263 30 -263 35 0 79 40 79
72 0 29 47 203 64 236 18 36 53 75 66 75 6 0 10 7 10 15 0 8 7 15 15 15 8 0
15 4 15 9 0 5 26 26 57 47 32 22 69 49 82 61 14 12 29 19 33 16 5 -3 12 4 15
16 3 12 10 21 15 21 6 0 25 15 44 34 l34 34 -5 292 c-2 169 0 300 5 310 14 26
15 213 1 218 -7 2 -6 9 4 19 11 11 15 42 17 121 0 59 0 114 -1 122 -3 26 -4
107 -2 332 1 120 -1 223 -5 230 -8 12 -16 221 -15 350 1 59 -1 67 -20 73 -11
4 -22 5 -24 3 -2 -2 -1 -32 2 -66 3 -35 9 -58 13 -52 5 8 9 7 13 -5 10 -23
-19 -30 -67 -16 -57 17 -106 23 -107 14 -1 -5 -3 -21 -5 -37 -3 -33 -34 -72
-34 -46 -1 8 -9 -1 -18 -20 -19 -40 -61 -52 -88 -26 -20 20 -58 22 -51 2 8
-20 -10 -32 -58 -39 -36 -6 -42 -3 -72 30 -27 29 -33 44 -33 80 0 48 -18 95
-49 131 -18 20 -28 23 -78 21 l-58 -2 3 29 c4 47 -6 74 -28 74 -10 0 -22 -5
-25 -10 -4 -6 -37 -25 -73 -42 -37 -17 -84 -42 -104 -55 -31 -19 -51 -23 -111
-23 -40 0 -78 5 -83 10 -11 11 -94 -10 -118 -29 -10 -8 -20 -5 -42 14 -16 14
-38 26 -49 26 -45 4 -101 -4 -114 -15 -12 -9 -13 -8 -7 4 4 8 1 7 -7 -3 -16
-19 -108 -69 -115 -62 -3 3 3 7 12 11 9 3 16 12 16 19 0 7 9 15 20 18 11 3 20
12 20 21 0 10 6 13 15 10 9 -4 15 0 15 10 0 8 12 23 28 33 15 9 40 30 56 45
17 15 36 28 43 28 7 0 13 5 13 11 0 5 16 17 36 25 48 20 65 37 53 55 -6 10 -9
10 -9 2z m471 -569 c-25 -76 -91 -403 -91 -449 0 -33 -4 -37 -52 -60 -29 -13
-66 -37 -83 -52 -16 -15 -49 -41 -73 -57 -25 -17 -41 -35 -38 -42 3 -8 1 -16
-3 -19 -5 -3 -11 2 -15 10 -6 16 -6 15 -142 -77 -23 -15 -43 -25 -46 -23 -2 3
-36 -15 -74 -40 -38 -24 -88 -54 -112 -65 -44 -20 -130 -84 -145 -108 -5 -7
-12 -10 -18 -7 -5 4 -9 -1 -9 -9 0 -9 -6 -13 -14 -10 -9 3 -15 -5 -19 -25 -4
-17 -12 -31 -18 -31 -6 0 -9 7 -5 15 3 8 0 15 -6 15 -6 0 -4 8 5 18 10 10 17
21 17 24 0 10 68 107 122 176 27 35 47 70 44 77 -3 9 0 12 10 8 9 -3 14 2 14
17 0 11 4 18 10 15 11 -7 37 17 90 84 19 24 40 48 45 55 6 6 25 34 42 61 18
28 46 64 63 80 16 16 30 33 30 38 0 15 157 165 180 172 13 4 19 12 16 21 -3 7
4 18 15 24 11 6 39 29 62 50 49 46 211 177 215 175 1 -1 -7 -28 -17 -61z
m-2406 -1441 c-3 -38 -10 -86 -15 -108 -13 -53 -12 -88 0 -80 26 16 -4 -47
-78 -165 -29 -47 -59 -94 -65 -104 -7 -11 -28 -46 -49 -78 l-36 -58 -4 66 c-1
36 -1 68 2 70 2 3 3 22 1 43 -1 22 2 42 8 46 7 3 11 -2 11 -14 0 -23 28 -42
62 -40 17 1 18 3 6 6 -20 5 -25 24 -5 21 6 -2 11 5 9 14 -1 10 6 26 18 38 16
16 20 33 20 95 0 42 4 75 10 75 5 0 6 -8 3 -17 -6 -15 -4 -16 9 -5 14 11 17 9
23 -18 4 -16 11 -30 16 -30 10 0 7 60 -5 78 -3 5 -2 12 4 14 15 5 20 60 10
105 -6 24 -5 39 1 41 5 2 16 19 24 38 8 19 17 34 20 34 3 0 4 -30 0 -67z"/>
<path d="M9007 8122 c4 -44 1 -65 -11 -84 -20 -30 -66 -164 -66 -191 0 -16 3
-17 15 -7 8 7 15 18 15 25 0 6 9 20 20 30 25 23 25 20 -5 -39 -28 -56 -32 -86
-10 -86 17 0 21 -26 5 -32 -6 -2 -12 -13 -13 -26 0 -12 -5 -22 -10 -22 -4 0
-5 -5 -2 -10 4 -6 1 -18 -6 -26 -6 -8 -9 -17 -6 -20 12 -13 25 8 43 71 19 65
41 91 30 35 -3 -16 -9 -43 -12 -60 -6 -33 0 -37 22 -16 9 10 14 36 14 75 0 35
4 61 10 61 6 0 8 12 5 27 l-5 28 24 -30 c13 -16 22 -35 19 -42 -3 -6 0 -20 6
-30 9 -16 10 -15 11 7 0 34 -27 132 -39 139 -14 9 -20 100 -7 105 6 2 3 5 -8
5 -15 1 -17 6 -13 29 9 45 -4 142 -18 142 -10 0 -12 -15 -8 -58z"/>
<path d="M9273 8103 c-3 -10 -13 -34 -21 -53 -28 -68 -44 -125 -48 -178 -3
-37 -12 -64 -30 -87 -25 -33 -20 -51 11 -39 9 4 14 12 11 20 -3 7 1 18 9 24 7
6 21 26 30 45 9 19 20 35 24 35 8 0 7 -121 -3 -267 -5 -72 4 -97 27 -74 6 6 7
11 1 11 -6 0 -6 35 0 95 9 94 18 116 30 73 5 -18 8 -20 15 -10 5 9 0 32 -16
64 -13 28 -22 62 -20 77 4 29 8 22 26 -44 12 -44 27 -72 35 -65 5 6 -7 63 -31
148 -12 42 -20 124 -23 230 0 18 -20 15 -27 -5z"/>
<path d="M4645 7733 c-29 -16 -35 -24 -24 -28 9 -3 28 -1 43 5 15 5 32 8 36 5
11 -7 1 -37 -16 -47 -12 -8 -30 -106 -26 -141 1 -10 -2 -16 -7 -13 -5 3 -11
-1 -15 -9 -3 -8 0 -15 7 -15 7 -1 2 -9 -10 -19 -24 -20 -30 -39 -38 -114 -2
-26 -10 -57 -15 -68 -6 -11 -10 -27 -9 -37 1 -9 1 -19 0 -22 -1 -3 -4 -38 -6
-78 -2 -40 -6 -81 -9 -90 -3 -9 -8 -37 -11 -61 -3 -24 -10 -52 -16 -63 -7 -12
-8 -42 -4 -74 6 -54 17 -68 29 -38 9 24 7 36 -5 29 -10 -7 -9 3 6 90 15 78 26
162 24 180 -4 34 13 115 23 115 6 0 8 6 5 14 -3 7 1 25 8 39 7 15 11 36 8 47
-3 11 -2 20 3 19 20 -3 26 2 16 14 -11 13 -11 42 1 53 4 4 7 15 7 25 0 10 6
24 13 31 7 7 13 30 13 51 3 79 4 83 14 67 8 -12 10 -9 10 12 0 14 -6 29 -12
32 -7 3 -3 3 9 0 19 -4 21 -2 17 20 -2 14 2 31 10 39 8 8 12 17 9 21 -3 3 0
12 7 21 11 13 8 15 -22 13 -19 -2 -52 -13 -73 -25z"/>
<path d="M3938 7473 c-43 -13 -78 -28 -78 -34 0 -5 -7 -9 -15 -9 -8 0 -27 -13
-42 -30 -14 -16 -32 -30 -40 -30 -7 0 -13 -4 -13 -10 0 -5 7 -6 17 -3 11 4 14
3 9 -5 -9 -15 -46 -16 -46 -1 0 5 -17 -6 -37 -25 -21 -20 -62 -48 -92 -63 -29
-15 -73 -47 -97 -70 -24 -24 -48 -43 -54 -43 -6 0 -9 -4 -6 -9 7 -11 -20 -35
-32 -27 -5 3 -16 -4 -25 -15 -19 -21 -22 -33 -7 -24 15 9 12 -8 -6 -33 -12
-17 -13 -26 -5 -36 9 -10 8 -15 -3 -19 -11 -4 -13 -16 -10 -44 5 -30 3 -35 -6
-23 -9 12 -10 5 -7 -30 2 -25 7 -54 12 -64 6 -15 5 -17 -5 -11 -9 5 -11 4 -6
-3 4 -7 13 -12 20 -12 9 0 15 28 19 97 4 54 11 99 17 101 5 2 10 15 10 29 0
29 54 85 105 108 26 12 77 54 150 124 11 10 30 24 43 30 12 7 22 18 22 26 0
10 10 15 26 15 18 0 38 12 60 36 38 40 46 57 13 28 -22 -19 -22 -19 -10 4 11
21 41 31 41 13 0 -5 26 4 57 20 31 16 62 29 69 29 6 0 22 9 35 20 31 26 14 24
-83 -7z"/>
<path d="M5485 7284 c-16 -8 -34 -22 -38 -30 -4 -8 -15 -14 -23 -14 -15 0 -84
-66 -84 -80 0 -28 -244 -310 -269 -310 -5 0 -12 -8 -15 -18 -5 -15 -54 -72
-133 -155 -5 -4 -35 -33 -68 -65 -33 -31 -77 -80 -98 -107 -21 -28 -51 -59
-68 -70 -16 -11 -29 -23 -29 -27 0 -3 -18 -26 -40 -49 -22 -24 -40 -49 -40
-56 0 -7 -4 -13 -10 -13 -5 0 -10 -6 -10 -12 0 -7 -9 -24 -20 -38 -11 -14 -20
-32 -20 -41 0 -8 -14 -28 -30 -44 -40 -38 -64 -85 -50 -99 5 -5 10 -33 10 -62
0 -30 5 -56 13 -62 19 -16 165 -30 392 -38 110 -3 205 -10 210 -14 8 -7 205
-22 268 -22 9 1 18 -7 19 -16 2 -21 8 -412 8 -469 -1 -30 4 -44 17 -51 10 -5
83 -8 163 -7 l145 2 21 31 c24 35 26 61 26 362 0 74 0 200 1 280 0 80 -1 161
-2 180 -2 19 -1 58 2 85 10 86 11 151 3 163 -4 7 -20 12 -35 12 -15 0 -32 5
-37 10 -7 7 -59 10 -135 8 l-124 -3 -11 -105 c-7 -58 -12 -105 -13 -105 -1 0
-53 -1 -116 -3 -81 -2 -115 1 -115 9 0 7 -20 10 -57 8 -32 -1 -76 -2 -97 -1
l-40 2 42 31 c23 17 42 34 42 38 0 4 28 38 63 75 34 38 73 86 88 107 27 41 91
111 158 172 22 21 41 42 41 46 0 5 13 24 30 42 16 19 30 37 30 42 0 4 7 7 15
7 8 0 15 5 15 11 0 15 81 108 189 216 44 46 81 86 81 91 0 4 25 34 55 67 31
32 54 64 52 70 -5 14 -140 24 -149 10 -5 -6 -8 -6 -8 2 0 9 -22 12 -73 11 -40
0 -82 2 -93 6 -10 3 -32 -1 -49 -10z"/>
<path d="M5696 7015 c-11 -19 -23 -35 -28 -35 -12 0 -78 -67 -78 -79 0 -6 -9
-15 -20 -21 -11 -6 -23 -22 -26 -36 -4 -14 -17 -29 -30 -34 -13 -5 -30 -23
-39 -40 -15 -30 -15 -33 1 -51 10 -11 23 -18 30 -15 7 3 17 -1 23 -8 8 -9 43
-11 143 -7 73 3 169 4 213 3 102 -2 366 -20 371 -25 10 -10 -22 -83 -51 -114
-20 -22 -35 -49 -39 -74 -3 -21 -10 -39 -14 -39 -10 0 -92 -123 -92 -138 0 -7
-6 -12 -14 -12 -27 0 -133 -190 -177 -315 -16 -46 -21 -92 -25 -200 -2 -77 -6
-165 -10 -195 -3 -30 -7 -96 -10 -146 l-5 -92 45 -6 c25 -4 51 -4 57 -1 20 13
189 18 189 6 0 -18 18 -13 30 8 5 11 12 66 15 123 3 56 7 144 10 193 4 100 13
153 26 161 5 3 9 19 9 36 0 20 21 66 56 127 31 53 59 98 63 101 13 10 50 69
64 101 9 19 33 52 55 74 21 22 42 49 46 60 3 11 24 40 47 65 22 25 45 57 51
72 5 16 13 26 17 23 12 -7 68 125 81 190 15 79 24 325 11 325 -5 0 -11 8 -13
18 -3 16 -23 17 -243 18 -132 0 -348 4 -480 7 l-241 7 -18 -35z"/>
<path d="M3339 6726 c-2 -104 -2 -129 5 -193 3 -35 2 -63 -2 -63 -8 0 -8 -108
1 -116 3 -3 1 -17 -4 -31 -5 -14 -6 -31 -1 -37 12 -16 9 -35 -8 -46 -8 -5 -10
-10 -5 -10 7 0 10 -49 7 -146 -3 -130 -1 -146 12 -141 16 6 23 -8 8 -17 -4 -2
-9 -19 -10 -37 -3 -42 -8 -48 -32 -42 -20 5 -28 23 -11 23 5 0 4 19 -2 43 -6
23 -9 70 -8 104 2 60 -11 122 -34 152 -5 8 -11 48 -11 90 -2 100 -41 255 -68
273 -7 5 -7 8 2 8 7 0 10 5 7 10 -10 17 -25 11 -25 -10 0 -11 -6 -20 -12 -20
-9 0 -8 -4 2 -10 8 -5 10 -10 5 -10 -9 0 -37 -78 -50 -142 -3 -16 -9 -28 -14
-28 -5 0 -11 12 -15 28 -7 32 -67 99 -101 112 -20 8 -23 6 -18 -7 5 -12 1 -14
-18 -8 -13 4 -36 14 -51 21 -35 18 -48 18 -48 -1 0 -8 -4 -15 -8 -15 -22 0
-113 -108 -144 -173 -73 -148 -128 -269 -128 -281 0 -7 -4 -16 -9 -21 -5 -6
-14 -32 -19 -60 -12 -60 -51 -214 -59 -235 -4 -8 -8 -28 -9 -45 -1 -16 -4 -44
-7 -62 -2 -18 1 -34 7 -37 7 -3 6 -8 -4 -15 -8 -6 -11 -11 -6 -11 5 0 4 -6 -2
-13 -12 -14 -16 -127 -6 -169 4 -18 2 -28 -5 -28 -8 0 -9 -15 -5 -47 3 -27 5
-56 5 -65 0 -10 4 -20 10 -23 9 -6 11 6 15 95 1 25 5 73 9 108 5 46 4 62 -5
62 -9 0 -9 4 -3 13 6 6 11 35 12 62 2 81 18 156 73 330 6 22 11 46 10 52 -4
17 16 88 37 138 25 57 57 134 71 172 7 17 20 39 31 49 10 9 19 24 19 32 0 16
57 90 103 135 27 25 65 39 53 18 -7 -11 68 -31 93 -24 17 4 33 -11 102 -95 25
-31 27 -32 32 -11 3 11 10 18 15 15 9 -6 33 55 37 96 1 12 3 29 4 36 0 6 5 12
10 12 5 0 14 -30 21 -67 6 -38 16 -82 21 -98 5 -17 10 -59 11 -93 1 -35 5 -65
10 -68 15 -10 27 -80 29 -169 1 -49 6 -96 11 -102 6 -7 8 -20 4 -28 -4 -11 -2
-14 6 -9 8 5 9 2 5 -9 -4 -11 1 -20 13 -27 28 -15 53 -13 47 4 -3 8 -2 16 4
18 14 5 31 127 25 178 -6 44 -7 309 -3 622 2 141 0 157 -15 161 -15 4 -17 -4
-19 -57z"/>
<path d="M1379 6388 c-3 -48 -7 -67 -28 -131 -16 -51 -19 -72 -11 -87 7 -12 7
-20 1 -20 -5 0 -8 -20 -7 -45 2 -28 -1 -45 -8 -45 -6 0 -4 -4 4 -9 20 -14 30
-4 30 30 0 16 6 39 13 50 10 17 10 23 0 26 -16 6 -16 23 -1 60 l11 28 8 -45
c5 -25 17 -52 27 -61 11 -8 23 -25 26 -37 4 -12 13 -22 20 -22 8 0 21 -10 30
-22 l17 -23 -7 25 c-8 28 -11 51 -13 93 -1 16 -7 27 -16 27 -18 0 -49 64 -42
90 3 10 -1 27 -9 37 -12 16 -13 13 -9 -25 7 -62 16 -96 29 -104 6 -4 7 -11 2
-15 -5 -4 -11 -2 -13 5 -3 7 -11 19 -19 27 -8 8 -13 18 -12 22 1 4 -3 18 -10
29 -9 18 -8 28 4 53 9 18 17 40 18 49 4 20 -14 62 -26 62 -4 0 -9 -10 -9 -22z"/>
<path d="M1153 5978 c-1 -13 -8 -51 -16 -86 -13 -51 -13 -61 -2 -52 11 9 12 7
8 -9 -3 -12 -9 -21 -13 -21 -4 0 -10 -15 -12 -34 -2 -19 -1 -33 3 -30 12 7 20
-29 9 -40 -7 -7 -10 -6 -10 3 0 11 -3 11 -15 1 -17 -14 -20 -40 -6 -40 5 0 21
4 35 10 17 6 26 6 26 0 0 -6 -10 -10 -22 -11 -13 0 -18 -3 -11 -5 9 -4 9 -13
2 -31 -5 -14 -8 -28 -5 -30 2 -3 7 5 11 16 4 12 12 18 21 14 10 -4 14 3 14 23
0 16 3 40 7 54 6 22 5 24 -10 11 -15 -11 -17 -11 -17 2 0 8 6 18 13 20 9 4 8
8 -3 16 -11 8 -12 11 -2 11 7 0 10 5 6 12 -5 7 -3 8 6 3 10 -6 12 -1 6 26 -11
49 -13 99 -4 99 13 0 56 -98 68 -157 9 -42 9 -58 0 -67 -9 -8 -11 -7 -10 4 6
35 -13 80 -32 80 -16 0 -18 -4 -12 -22 4 -13 6 -40 6 -60 -1 -20 3 -49 8 -63
7 -17 7 -24 0 -20 -15 9 -18 -92 -4 -124 4 -9 8 -28 9 -44 2 -32 9 -42 24 -32
7 4 11 57 12 138 1 130 1 131 15 86 8 -25 24 -55 36 -65 l21 -19 -8 35 c-4 19
-8 42 -9 50 -1 8 -8 25 -15 38 -7 13 -10 28 -7 35 2 7 5 4 5 -5 1 -10 6 -18
11 -18 16 0 11 26 -8 44 -11 9 -19 31 -20 53 -1 20 -6 41 -12 47 -5 5 -10 18
-10 27 0 9 -7 20 -16 23 -9 4 -14 9 -11 12 3 3 -3 29 -13 57 -19 55 -44 73
-47 35z"/>
<path d="M4709 5786 c-2 -2 -98 -6 -212 -9 -192 -5 -212 -8 -260 -30 -55 -26
-173 -126 -188 -161 -5 -12 -20 -39 -34 -61 -61 -101 -68 -157 -68 -610 1
-340 0 -351 -22 -400 -12 -28 -28 -76 -35 -105 -8 -30 -20 -62 -27 -71 -7 -8
-13 -22 -13 -29 0 -20 48 36 53 62 3 15 5 11 5 -12 1 -19 -15 -80 -33 -135
-31 -88 -37 -93 -18 -17 3 12 1 22 -6 22 -16 0 -31 -70 -36 -163 -2 -45 -7
-113 -10 -152 -4 -38 -7 -216 -7 -395 -2 -383 4 -420 83 -551 94 -154 194
-269 235 -269 8 0 14 -4 14 -8 0 -5 23 -23 50 -41 28 -18 50 -37 50 -42 0 -5
9 -9 20 -9 11 0 20 -4 20 -8 0 -5 30 -24 66 -43 113 -59 121 -64 206 -136 46
-38 98 -78 116 -89 49 -28 118 -124 126 -174 3 -23 15 -51 26 -62 10 -11 23
-33 29 -49 9 -27 9 -28 -18 -23 -20 4 -30 1 -34 -10 -4 -10 -1 -13 9 -9 7 3
14 1 14 -4 0 -5 14 -8 30 -5 23 3 30 0 30 -12 0 -10 7 -31 16 -48 l16 -30 -34
25 c-18 14 -45 29 -61 32 -15 4 -30 11 -33 16 -3 5 -14 9 -25 9 -10 0 -19 5
-19 10 0 6 -6 10 -14 10 -8 0 -21 6 -28 12 -7 7 -20 15 -28 17 -8 2 -39 12
-69 22 -64 22 -200 34 -221 20 -27 -18 9 -39 80 -45 97 -9 131 -17 137 -32 3
-8 13 -14 23 -14 22 0 123 -32 130 -41 3 -3 25 -13 50 -21 25 -8 46 -20 46
-26 1 -7 2 -14 3 -17 0 -2 13 0 27 5 14 6 23 6 20 1 -3 -5 0 -14 8 -20 8 -7
19 -42 26 -79 7 -37 15 -71 18 -76 10 -18 1 -161 -11 -168 -18 -12 -27 -9 -27
7 0 21 -17 19 -30 -5 -9 -16 -8 -18 5 -14 8 4 15 1 15 -6 0 -6 5 -8 13 -4 6 4
3 -3 -8 -15 -14 -17 -17 -26 -9 -39 11 -19 7 -52 -7 -52 -5 0 -7 11 -3 25 3
14 2 25 -4 25 -21 0 -23 -52 -4 -91 13 -26 15 -36 6 -28 -12 9 -14 2 -14 -42
-1 -108 0 -104 -85 -283 -32 -66 -108 -132 -138 -120 -9 3 -24 1 -34 -5 -27
-14 -106 -24 -180 -24 -44 1 -63 -3 -63 -11 0 -16 -78 -48 -86 -35 -3 5 4 9
15 9 12 0 21 5 21 11 0 8 -18 10 -59 5 -46 -5 -62 -3 -74 9 -9 8 -22 12 -30 9
-9 -3 -25 0 -37 6 -18 10 -21 18 -16 42 4 22 1 34 -10 43 -15 10 -15 21 -4 98
12 84 12 86 35 77 27 -10 33 -1 27 41 -5 32 -22 30 -22 -2 0 -14 -6 -19 -17
-17 -15 3 -18 17 -21 93 -2 70 -6 93 -19 102 -9 7 -19 13 -22 13 -3 0 -6 -97
-6 -215 0 -154 3 -211 11 -201 6 9 15 11 24 6 11 -7 10 -11 -3 -25 -30 -29
-13 -87 22 -78 14 3 20 -2 25 -24 9 -35 64 -93 88 -93 12 0 20 10 24 30 6 26
10 28 34 24 29 -6 60 6 95 36 11 9 33 16 50 15 42 -3 42 -4 21 -20 -27 -21
-13 -45 26 -45 24 0 44 10 71 35 22 21 48 35 63 35 46 0 184 77 184 102 0 4
13 28 30 54 16 26 27 51 24 55 -3 5 4 19 15 31 16 16 18 25 9 35 -6 7 -8 16
-4 20 3 3 6 1 6 -5 0 -7 5 -12 11 -12 5 0 8 4 5 8 -3 5 0 25 6 45 l11 37 134
0 c87 0 132 4 128 10 -11 18 127 10 270 -16 182 -34 301 -41 363 -21 26 8 70
15 97 16 77 1 123 9 158 28 17 9 57 16 87 17 54 1 55 1 56 -29 3 -74 10 -125
17 -125 4 0 7 -7 7 -16 0 -8 4 -13 9 -9 5 3 13 -5 17 -17 4 -13 15 -30 25 -39
11 -9 19 -24 19 -33 0 -9 5 -16 10 -16 6 0 10 5 10 10 0 7 6 7 19 0 25 -13 41
-13 41 0 0 6 -8 10 -18 10 -22 0 -57 36 -67 68 -3 12 -10 22 -15 22 -8 0 -16
28 -26 83 -2 12 -6 34 -10 50 -4 17 -1 33 7 43 10 13 10 17 0 24 -16 9 -23 58
-10 66 5 3 9 0 9 -7 0 -30 13 4 15 42 4 48 12 59 49 63 38 4 45 16 8 16 -22 0
-32 5 -32 15 0 14 23 20 57 16 6 -1 15 4 19 10 5 9 -3 10 -30 5 -20 -4 -36 -5
-36 -2 0 2 11 46 25 98 14 51 27 107 29 123 16 122 20 136 37 146 11 5 19 16
19 24 0 7 4 17 10 20 6 3 7 -1 4 -9 -3 -9 -1 -16 5 -16 6 0 11 3 11 8 0 23
197 122 245 122 12 0 25 3 29 7 9 9 46 11 46 2 0 -4 -17 -10 -37 -15 -23 -4
-31 -9 -21 -11 21 -5 127 24 146 39 7 6 39 11 72 12 35 1 59 5 57 11 -2 6 -32
10 -65 10 -34 0 -62 3 -62 7 0 14 91 12 265 -5 17 -2 36 -7 43 -11 7 -4 15 -1
18 9 6 15 19 16 96 11 50 -4 98 -11 109 -17 11 -5 23 -8 28 -5 11 7 71 -13 92
-30 8 -8 21 -14 27 -14 6 0 21 -4 34 -9 13 -5 28 -9 33 -11 6 -1 18 -9 28 -17
9 -9 17 -12 17 -8 0 5 5 4 12 -3 7 -7 20 -12 30 -12 11 0 33 -7 50 -16 l31
-16 -6 -74 c-3 -43 -1 -72 4 -68 5 3 9 14 9 25 0 10 4 19 9 19 13 0 21 -54 8
-62 -8 -5 -6 -13 7 -27 12 -13 16 -27 11 -42 -5 -13 -3 -19 3 -15 7 4 9 -19 6
-64 -3 -56 -1 -72 11 -76 8 -4 15 -10 15 -16 0 -5 -4 -6 -10 -3 -5 3 -10 1
-10 -4 0 -6 5 -11 11 -11 7 0 9 -17 5 -52 -10 -81 -27 -138 -42 -138 -7 0 -18
-9 -24 -20 -6 -12 -7 -20 -1 -20 5 0 12 6 15 13 3 6 5 3 3 -8 -1 -11 -6 -18
-11 -17 -12 5 -29 -25 -21 -37 3 -6 -6 -21 -21 -36 -14 -14 -23 -32 -20 -40 3
-9 -1 -15 -9 -15 -8 0 -15 -6 -15 -14 0 -7 -11 -21 -24 -30 -23 -14 -25 -14
-29 2 -4 15 -5 15 -6 1 -1 -22 25 -43 44 -35 9 3 18 19 21 36 4 16 10 27 15
24 5 -3 13 4 17 15 4 11 12 19 17 19 6 -1 12 7 14 18 1 10 9 26 17 34 7 9 18
27 24 40 10 23 10 23 6 2 -3 -14 1 -22 10 -22 18 0 19 56 2 63 -19 7 21 42 63
55 27 8 243 25 319 24 8 0 35 0 60 -1 69 0 110 3 110 10 0 4 28 6 61 5 34 -1
94 2 133 6 39 4 132 10 208 14 126 6 137 5 146 -12 19 -37 32 -121 37 -229 14
-318 16 -325 56 -325 12 0 16 -5 13 -15 -7 -18 17 -20 34 -3 10 10 15 10 22
-1 9 -16 81 -22 117 -9 13 4 92 10 175 13 215 9 308 14 343 19 17 3 61 8 99
11 38 3 73 8 78 11 5 3 23 7 41 9 75 8 253 58 331 94 28 13 73 40 101 61 49
36 66 54 158 165 23 28 65 73 93 100 29 28 59 64 67 80 8 17 24 38 35 48 12
11 18 25 15 35 -4 10 -2 13 5 8 7 -4 12 -3 12 3 0 5 12 23 26 38 50 54 67 100
59 166 -5 52 -4 59 9 54 13 -5 15 -1 10 21 -4 15 -14 36 -24 47 -9 11 -20 28
-23 38 -4 9 -11 17 -17 17 -5 0 -10 6 -10 13 0 22 -41 101 -66 126 -13 13 -21
27 -19 31 3 5 -8 23 -25 42 -67 74 -76 86 -88 113 -7 15 -15 25 -18 22 -3 -3
-16 5 -28 17 -61 56 -75 66 -90 66 -10 0 -14 5 -11 10 4 6 -6 10 -24 10 -16 0
-34 6 -38 13 -11 17 -98 67 -117 67 -9 0 -16 5 -16 11 0 5 -4 8 -9 4 -5 -3
-16 4 -24 15 -8 12 -18 20 -23 19 -5 -1 -12 0 -16 1 -5 1 -11 3 -15 5 -5 1
-33 14 -64 28 -31 15 -74 27 -95 28 -22 0 -57 1 -79 1 -119 3 -468 -2 -585 -7
-74 -4 -150 -6 -169 -5 -19 0 -37 -4 -41 -10 -3 -6 -34 -15 -67 -21 -39 -7
-64 -17 -68 -26 -8 -23 0 -26 37 -14 18 5 47 12 63 15 17 2 32 5 35 7 3 1 23
3 45 4 22 1 76 5 120 9 239 20 538 22 625 4 36 -7 85 -11 110 -8 38 4 58 -1
132 -38 48 -23 94 -42 102 -42 9 0 16 -4 16 -10 0 -5 5 -10 11 -10 6 0 30 -13
54 -30 24 -16 47 -30 51 -30 12 0 118 -73 127 -87 4 -7 14 -13 22 -13 7 0 17
-9 20 -20 3 -11 12 -26 18 -32 31 -33 66 -89 95 -150 17 -38 34 -68 38 -68 3
0 3 8 -1 17 -5 15 -3 15 13 -2 11 -11 17 -23 15 -28 -2 -4 10 -27 28 -51 28
-40 31 -51 30 -113 -2 -141 -35 -217 -152 -355 -27 -31 -49 -61 -49 -67 0 -6
-7 -11 -15 -11 -8 0 -15 -4 -15 -8 0 -5 -8 -17 -17 -28 -10 -10 -52 -57 -93
-104 -41 -47 -78 -87 -83 -88 -4 -2 -31 -22 -60 -43 -29 -22 -77 -46 -107 -55
-30 -8 -84 -24 -120 -35 -36 -12 -85 -24 -110 -29 -25 -4 -56 -11 -70 -15 -59
-16 -148 -25 -192 -20 -26 4 -53 3 -60 -1 -18 -12 -33 -13 -267 -19 -139 -4
-210 -10 -220 -18 -11 -9 -13 -9 -8 0 4 6 3 14 -2 17 -5 4 -12 2 -16 -4 -4 -6
-11 -7 -18 -3 -6 4 -24 7 -40 7 -17 1 -33 8 -37 16 -37 74 -51 146 -54 286 -2
66 -8 146 -14 178 -10 51 -9 61 5 71 46 34 -46 60 -147 41 -19 -3 -65 -8 -102
-10 -37 -2 -71 -7 -77 -10 -6 -4 -67 -9 -137 -11 -70 -3 -132 -9 -137 -14 -6
-6 -17 -7 -26 -3 -19 9 -42 9 -56 0 -8 -5 -8 18 -3 70 7 79 4 97 -12 72 -12
-18 -11 -21 -15 106 -3 130 -5 128 158 131 73 1 161 4 197 7 88 6 212 9 229 5
7 -2 16 2 18 9 3 8 -6 12 -28 12 -43 0 -32 10 17 14 36 3 39 6 54 55 10 28 20
100 24 161 4 60 9 120 12 132 25 111 24 259 -1 218 -5 -7 -9 -43 -11 -79 -1
-36 -5 -77 -8 -91 -11 -45 -14 -73 -21 -180 -4 -58 -11 -121 -16 -142 -8 -33
-13 -37 -52 -43 -23 -4 -46 -10 -52 -14 -34 -24 -396 -52 -444 -34 -35 14 -83
4 -88 -18 -5 -17 -18 -19 -152 -20 -80 0 -169 -4 -197 -8 l-52 -7 -9 58 c-8
46 -7 58 3 58 8 0 11 -6 8 -14 -3 -8 -1 -17 5 -21 12 -7 14 9 5 54 -4 17 -11
31 -16 31 -5 0 -6 -9 -3 -20 3 -11 3 -20 -2 -20 -15 0 -13 41 3 47 8 3 14 9
14 15 0 5 -4 6 -10 3 -6 -3 -7 1 -4 9 4 9 1 16 -6 16 -10 0 -10 3 0 15 9 11
10 18 1 29 -6 7 -9 21 -5 30 3 9 2 16 -4 16 -12 0 -36 66 -34 94 0 11 -14 40
-33 66 -18 25 -41 66 -51 90 -10 25 -20 47 -23 50 -3 3 -7 12 -9 20 -2 8 -7
16 -11 18 -5 1 -6 14 -3 27 2 14 0 25 -7 25 -11 0 -81 103 -81 120 0 6 5 10
11 10 5 0 7 5 3 11 -5 8 -9 8 -14 -1 -6 -9 -9 -9 -16 1 -4 8 -3 14 5 17 7 2
-6 25 -33 57 -25 29 -43 55 -39 58 3 4 -6 22 -20 40 -14 19 -23 37 -20 41 4 3
1 6 -6 6 -7 0 -10 7 -7 18 7 19 -19 54 -61 82 l-22 15 47 51 c60 67 122 152
123 173 4 49 9 70 23 109 25 66 42 498 26 641 -20 177 -74 428 -96 446 -21 18
-35 141 -20 183 13 40 14 291 2 602 -7 183 -38 336 -79 392 -21 29 -129 108
-148 108 -5 0 -9 5 -9 12 0 6 -3 8 -7 5 -3 -4 -12 -2 -19 3 -6 6 -16 10 -20 8
-5 -1 -34 6 -64 17 -30 10 -64 20 -75 21 -11 1 -47 8 -80 14 -75 15 -153 6
-273 -29 -98 -30 -141 -67 -195 -170 -81 -154 -111 -277 -142 -581 -3 -32 -17
-118 -35 -215 -4 -22 -8 -34 -9 -27 -2 26 -18 10 -42 -40 -20 -46 -62 -113
-80 -128 -3 -3 -20 -26 -37 -51 -38 -57 -102 -106 -157 -120 -22 -6 -55 -19
-73 -30 -37 -21 -86 -36 -177 -51 -57 -10 -64 -9 -136 21 -97 40 -199 138
-243 231 -9 19 -37 58 -63 85 -50 54 -49 49 -39 205 1 14 -3 31 -8 39 -8 11
-8 13 2 7 9 -5 12 2 12 28 0 19 -4 36 -9 38 -13 5 -24 48 -12 48 6 0 11 -7 11
-16 0 -8 5 -12 10 -9 6 4 8 21 4 39 -4 25 -2 35 10 39 16 6 18 47 3 47 -6 0
-7 18 -3 41 4 25 2 46 -4 55 -11 12 -30 78 -50 169 -12 57 -31 127 -41 150 -4
11 -10 30 -14 41 -3 12 -34 50 -69 85 -34 35 -68 73 -74 85 -6 11 -29 26 -51
34 -23 7 -41 17 -41 22 0 5 -4 6 -10 3 -5 -3 -19 -1 -30 5 -10 6 -43 15 -72
20 -29 6 -60 13 -69 15 -8 3 -17 4 -20 1z m91 -60 c30 -5 71 -16 90 -26 20
-10 44 -20 54 -22 30 -5 168 -155 172 -187 4 -25 25 -94 35 -113 12 -23 0 -23
-16 -1 -7 9 -17 13 -23 9 -11 -6 27 -55 39 -50 23 11 45 -326 41 -633 -1 -122
7 -163 23 -114 9 29 25 18 64 -42 19 -28 50 -75 69 -104 88 -133 248 -230 364
-221 56 5 190 37 198 48 6 8 39 22 60 26 39 8 90 36 90 49 0 8 3 14 8 14 26
-4 41 5 58 36 10 19 24 35 31 35 7 0 13 5 13 11 0 5 -5 7 -12 3 -21 -13 4 18
39 49 18 16 33 35 33 42 0 8 7 20 15 29 8 8 19 32 24 53 l9 38 1 -32 c1 -32
18 -46 25 -20 2 6 9 55 16 107 6 52 15 111 20 130 5 19 11 62 15 95 5 52 13
118 31 269 13 100 104 313 156 366 36 36 101 69 135 70 12 0 24 4 27 9 7 11
117 26 166 23 70 -5 162 -26 167 -39 3 -7 18 -13 33 -13 16 0 46 -15 73 -35
25 -19 49 -35 54 -35 5 0 14 -10 21 -21 11 -17 20 -20 45 -16 56 9 95 -41 123
-158 33 -137 41 -627 14 -852 -8 -69 -8 -98 0 -114 7 -11 14 -37 16 -56 3 -19
8 -43 13 -52 5 -9 6 -21 4 -27 -2 -6 4 -14 14 -16 18 -5 38 -69 48 -155 2 -18
9 -50 16 -70 14 -46 20 -494 9 -633 -8 -99 -48 -239 -75 -267 -8 -8 -15 -19
-15 -24 0 -31 -96 -140 -200 -229 -36 -30 -83 -72 -105 -92 -22 -21 -76 -56
-120 -78 -44 -22 -98 -53 -120 -69 -22 -16 -70 -50 -108 -76 -101 -68 -256
-210 -306 -279 -57 -79 -69 -91 -41 -39 30 54 21 66 -12 16 -25 -39 -72 -153
-63 -153 3 0 1 -9 -6 -21 -11 -22 -30 -126 -34 -189 -1 -19 -5 -60 -9 -90 -4
-30 -9 -68 -11 -85 -2 -16 -4 -30 -5 -30 -1 0 -14 -49 -30 -110 -26 -100 -28
-105 -24 -50 6 68 -11 60 -22 -10 -3 -22 -14 -70 -23 -105 -16 -59 -21 -66
-61 -87 -24 -13 -52 -31 -62 -40 -10 -9 -18 -13 -18 -9 0 3 -17 -1 -37 -10
-23 -10 -61 -16 -94 -15 -35 1 -81 -6 -118 -19 -67 -22 -183 -27 -241 -10 -19
6 -53 13 -75 16 -22 3 -55 9 -73 15 -18 6 -39 8 -47 5 -8 -3 -31 1 -52 8 l-37
13 27 7 c35 8 49 43 36 88 -5 18 -9 50 -9 71 0 23 -4 36 -10 32 -6 -3 -13 2
-17 12 -9 24 -23 33 -54 33 -30 0 -69 -33 -69 -60 0 -10 -4 -22 -10 -25 -5 -3
-10 -33 -10 -66 0 -33 4 -59 10 -59 6 0 10 10 10 22 0 20 1 20 23 -5 23 -27
77 -38 77 -16 0 6 -18 27 -40 46 -43 39 -46 49 -28 100 16 45 52 46 71 0 22
-50 37 -101 37 -124 0 -21 -36 -43 -70 -43 -11 0 -19 -6 -17 -12 2 -15 -22
-16 -73 -4 -34 9 -130 75 -160 112 -30 36 -46 131 -30 174 9 23 -2 166 -14
190 -8 17 -10 30 -5 30 5 0 2 12 -8 27 -13 19 -14 28 -5 31 16 5 15 21 -3 56
-9 16 -14 35 -11 43 3 7 1 15 -4 18 -6 4 -10 17 -10 31 0 13 -9 32 -20 41 -11
10 -20 25 -20 33 0 9 -5 21 -12 28 -7 7 -9 12 -5 12 4 0 0 14 -8 30 -9 17 -20
28 -25 25 -4 -3 -11 9 -15 27 -13 60 -116 188 -152 188 -4 0 -27 18 -51 40
-23 22 -45 40 -48 40 -4 0 -26 17 -48 37 -66 60 -99 83 -117 83 -9 0 -22 6
-28 14 -7 8 -24 17 -39 21 -15 3 -41 18 -58 33 -18 15 -57 43 -89 62 -82 50
-184 152 -251 251 -62 92 -83 143 -99 239 -3 19 -8 44 -11 55 -5 20 -5 20 10
1 9 -11 19 -17 22 -13 4 4 1 13 -6 22 -16 20 -19 685 -3 685 2 0 8 -10 13 -22
8 -17 9 -9 5 32 -4 40 0 73 14 120 12 36 21 72 21 80 0 8 7 28 15 44 8 15 15
35 15 42 0 20 24 94 30 94 11 0 3 114 -8 118 -18 6 -15 16 24 97 19 42 46 82
59 91 14 9 22 20 19 25 -9 15 -44 10 -44 -6 0 -8 -5 -15 -10 -15 -7 0 -7 7 1
21 6 12 7 24 3 28 -10 7 -12 37 -3 45 3 3 2 32 -2 63 -9 60 -10 230 -4 343 2
36 6 103 8 150 3 47 7 96 10 109 13 52 29 91 37 91 4 0 11 11 14 25 3 13 15
29 27 35 16 9 18 14 8 26 -10 12 -8 14 12 12 16 -2 24 2 24 12 0 13 43 61 88
99 24 19 21 -1 -3 -27 -21 -22 -27 -52 -10 -52 6 0 10 3 10 8 0 4 16 24 35 45
38 41 52 45 180 53 44 3 83 8 87 12 9 9 219 8 288 -2z m2542 -2857 c5 -3 8
-10 6 -15 -1 -5 7 -20 19 -34 46 -52 169 -269 177 -313 5 -28 34 -85 47 -92 5
-4 9 -15 9 -26 0 -10 5 -19 10 -19 6 0 16 -12 22 -27 7 -16 20 -39 30 -52 10
-13 15 -28 12 -33 -3 -5 3 -19 14 -31 40 -45 66 -117 41 -117 -6 0 -1 -15 10
-34 13 -21 21 -50 21 -79 l0 -46 -41 37 c-23 20 -46 37 -53 38 -6 0 -48 13
-94 27 -46 15 -88 25 -93 22 -5 -3 -18 -1 -30 5 -26 15 -54 18 -206 24 -67 3
-132 10 -144 17 -19 10 -25 9 -36 -7 -12 -17 -13 -17 -13 0 0 14 -5 17 -25 12
-18 -5 -27 -2 -31 9 -5 12 -9 13 -20 4 -8 -6 -14 -8 -14 -3 0 5 -4 5 -8 -1 -4
-5 -16 -17 -26 -25 -18 -14 -19 -13 -13 4 6 15 4 17 -10 11 -23 -9 -72 -17
-98 -16 -14 0 -16 -2 -6 -8 10 -7 9 -11 -6 -22 -10 -8 -24 -25 -30 -39 l-12
-25 0 27 c-1 37 -16 43 -59 25 -38 -16 -75 -29 -79 -28 -2 1 -18 -8 -37 -19
-25 -14 -36 -16 -40 -7 -5 9 -7 9 -12 0 -3 -7 -10 -13 -15 -13 -11 0 79 133
93 138 4 2 5 8 2 13 -3 6 -17 -3 -31 -18 -13 -15 -33 -38 -44 -50 -11 -12 -18
-27 -14 -33 4 -6 -9 -10 -34 -10 -23 0 -41 -4 -41 -9 0 -4 12 -6 27 -3 22 4
25 2 20 -12 -4 -10 -7 -22 -7 -27 0 -5 -11 -7 -25 -5 -16 3 -37 -5 -63 -24
l-39 -28 14 72 c7 39 16 87 20 106 3 19 18 46 32 60 14 14 54 60 89 103 34 42
81 91 105 108 23 17 46 37 50 44 4 8 29 29 55 47 26 17 88 62 137 98 50 37
124 83 165 102 75 34 126 73 237 178 47 45 60 52 67 40 5 -8 13 -18 18 -21z
m857 -1148 c11 -7 13 -23 8 -70 -5 -41 -2 -80 9 -122 9 -34 13 -76 10 -94 l-6
-32 -83 -6 c-45 -4 -128 -7 -184 -7 -85 0 -103 -3 -103 -15 0 -8 -7 -15 -16
-15 -12 0 -14 8 -9 43 12 84 13 192 3 204 -7 9 -7 13 1 13 6 0 11 4 11 10 0 5
-7 7 -17 3 -13 -5 -15 -2 -10 18 4 13 7 34 7 46 0 22 3 22 116 22 64 0 119 3
122 6 9 9 126 5 141 -4z m-3239 -343 c0 -10 4 -18 8 -18 4 0 27 -18 50 -40 23
-22 55 -43 71 -46 25 -5 28 -9 20 -23 -9 -13 -27 -16 -90 -16 -57 0 -79 4 -79
13 0 17 -11 15 -26 -5 -19 -27 -27 -9 -11 24 17 32 30 102 29 153 l0 35 13
-30 c8 -16 14 -38 15 -47z"/>
<path d="M4580 5612 c0 -5 -10 -12 -22 -15 -72 -16 -144 -39 -156 -50 -8 -7
-18 -11 -21 -11 -25 5 -62 -29 -139 -131 -78 -104 -111 -179 -124 -282 -5 -49
-10 -105 -9 -125 1 -21 -3 -38 -9 -38 -5 0 -10 -5 -10 -11 0 -5 5 -7 10 -4 7
4 8 -31 4 -103 -7 -116 -1 -164 19 -160 7 1 36 -4 66 -11 29 -8 79 -15 110
-16 31 -2 67 -5 81 -8 97 -19 287 -26 310 -12 7 5 41 9 74 10 34 1 87 8 118
14 31 7 71 14 89 16 39 5 45 11 31 28 -7 8 -9 16 -6 19 7 8 7 308 -1 379 -3
31 -14 82 -25 113 -10 31 -17 56 -15 56 1 0 -3 21 -11 46 -7 26 -11 50 -8 55
3 5 -2 9 -10 9 -9 0 -15 3 -14 8 4 18 -15 60 -25 56 -7 -2 -25 14 -40 36 -16
22 -33 40 -38 40 -6 0 -25 11 -42 24 -18 13 -51 29 -74 35 -24 7 -43 16 -43
21 0 5 -8 8 -17 8 -10 0 -26 3 -35 7 -10 4 -18 3 -18 -3z m105 -68 c16 -4 36
-13 43 -21 7 -7 19 -13 26 -13 16 0 116 -97 116 -113 0 -6 -5 -4 -11 6 -17 29
-31 20 -23 -15 6 -29 5 -31 -9 -19 -18 14 -37 7 -37 -13 0 -8 -6 -19 -14 -25
-14 -12 -43 -107 -38 -125 2 -5 -4 -6 -11 -3 -9 3 -20 -5 -28 -20 -11 -21 -11
-27 1 -37 18 -13 25 -46 10 -46 -5 0 -10 5 -10 10 0 6 -4 10 -9 10 -4 0 -6
-11 -3 -25 2 -14 -1 -32 -8 -40 -9 -11 -10 -15 0 -15 6 0 10 -8 8 -17 -2 -10
-9 -18 -17 -18 -7 0 -19 -16 -26 -35 -7 -19 -16 -43 -20 -52 -4 -10 -3 -18 3
-18 5 0 15 14 22 30 7 17 15 28 18 25 6 -6 -17 -54 -35 -73 -7 -7 -13 -20 -13
-28 0 -8 -4 -14 -10 -14 -14 0 -45 -63 -32 -68 12 -4 4 -42 -9 -42 -5 0 -6 -6
-3 -13 6 -18 -41 -57 -69 -56 -21 0 -21 1 3 10 16 7 20 13 13 17 -8 5 -9 13
-3 22 14 22 13 47 -1 33 -6 -6 -18 -9 -25 -6 -8 3 -14 0 -14 -6 0 -6 7 -11 15
-11 8 0 15 -3 15 -8 0 -11 -35 -39 -58 -46 -24 -8 -41 11 -18 20 14 5 40 63
32 71 -2 3 -12 -8 -22 -24 -35 -55 -45 -63 -66 -52 -11 6 -45 10 -76 10 -54
-1 -142 17 -142 29 0 3 14 5 30 5 17 0 30 -4 30 -9 0 -5 8 -2 17 5 9 8 14 9
10 3 -4 -7 9 -10 41 -7 75 5 90 8 97 15 8 8 -32 21 -44 14 -5 -3 -11 3 -14 14
-3 11 -1 18 3 15 11 -7 51 50 42 60 -4 5 -2 5 5 1 14 -8 27 10 13 19 -6 4 -8
11 -4 16 11 19 12 60 0 56 -6 -3 -10 -10 -8 -16 1 -6 -5 -11 -13 -11 -8 0 -15
-7 -15 -16 0 -8 5 -12 10 -9 6 3 10 1 10 -4 0 -6 -11 -11 -24 -11 -13 0 -26
-6 -29 -14 -8 -20 4 -28 20 -14 18 15 23 8 12 -19 -5 -13 -15 -23 -24 -23 -9
0 -15 -6 -14 -12 3 -25 -1 -39 -10 -33 -13 7 -5 46 11 57 8 6 5 7 -9 3 -25 -7
-28 -3 -14 23 5 9 12 24 15 32 3 8 12 23 18 34 11 15 10 19 0 23 -10 4 -8 9 6
19 13 9 20 26 20 51 0 21 6 52 12 68 8 21 8 31 1 33 -15 5 -14 23 3 36 19 15
33 62 15 51 -9 -6 -11 -3 -6 9 4 10 7 40 7 68 0 40 4 51 19 55 21 5 36 31 51
91 6 23 14 42 18 42 10 0 8 42 -3 59 -9 15 10 29 65 48 36 12 112 11 165 -3z
m-436 -230 c-13 -13 -24 -34 -26 -47 -2 -12 -7 -31 -12 -42 -20 -44 -30 -115
-30 -228 -1 -96 2 -122 16 -144 10 -15 23 -43 29 -62 7 -25 15 -35 27 -33 9 2
17 -2 17 -7 0 -6 -22 -8 -57 -4 -32 3 -64 6 -71 6 -10 0 -12 8 -8 26 14 60 18
106 7 91 -8 -12 -11 -5 -11 27 0 23 4 44 9 48 6 3 8 -8 6 -25 -2 -16 0 -30 5
-30 6 0 10 15 11 33 0 17 3 44 5 60 3 16 0 27 -7 27 -6 0 -9 -6 -6 -14 3 -8 0
-19 -7 -25 -11 -9 -11 -1 -4 42 5 28 10 77 10 107 0 35 2 48 7 36 5 -13 10
-16 15 -8 3 6 1 20 -5 30 -10 16 -8 28 10 65 12 25 33 57 46 71 14 15 25 33
25 40 0 23 15 28 18 6 2 -13 -6 -32 -19 -46z m601 14 c1 -2 3 -21 6 -43 3 -22
13 -60 24 -85 13 -34 16 -56 10 -90 -9 -54 -49 -180 -63 -197 -5 -7 -7 -13 -4
-13 3 0 0 -12 -8 -27 -8 -15 -11 -31 -8 -36 4 -6 1 -7 -7 -2 -8 5 -10 20 -6
44 3 22 2 31 -3 22 -5 -7 -14 -10 -21 -6 -7 5 -8 11 -2 17 5 5 6 24 2 43 -9
39 -8 185 1 200 4 6 10 25 14 43 4 18 13 32 21 32 9 0 12 4 9 10 -8 12 15 90
27 90 4 0 8 -1 8 -2z m-518 -105 c0 -29 -6 -70 -13 -90 -14 -44 -50 -207 -52
-243 -3 -28 -14 -50 -26 -50 -4 0 -8 6 -9 13 -10 86 -10 151 -1 224 6 48 11
105 11 126 1 20 5 37 9 37 5 0 6 7 3 15 -5 11 -2 13 10 9 10 -4 16 -1 16 7 0
7 8 21 17 31 17 19 17 19 26 -4 5 -13 9 -47 9 -75z m610 -9 c16 -56 19 -101
25 -305 l5 -206 -68 -6 c-38 -4 -80 -9 -94 -13 l-25 -7 22 20 c13 12 19 24 14
32 -6 9 -10 7 -14 -8 -3 -14 -13 -21 -29 -21 -16 0 -19 -3 -10 -9 8 -5 -23
-13 -80 -20 -51 -7 -103 -14 -115 -17 -36 -7 -27 14 9 22 18 3 40 16 48 28 19
26 30 75 19 82 -13 8 -4 57 16 87 9 15 14 27 11 27 -4 0 -4 5 -1 10 4 6 11 8
16 4 6 -3 5 -12 -3 -22 -11 -13 -10 -15 13 -9 23 6 29 2 42 -26 24 -52 29
-100 13 -122 -12 -17 -17 -18 -41 -7 -22 10 -29 10 -41 -3 -9 -8 -20 -15 -25
-15 -5 0 -9 -4 -9 -10 0 -19 41 -10 48 11 8 20 9 20 25 5 20 -21 65 -12 63 12
0 9 4 16 11 15 6 -1 14 4 17 12 3 8 0 16 -7 16 -7 1 2 4 18 8 23 5 33 14 41
41 6 19 16 36 22 38 17 5 26 -39 11 -50 -11 -8 -10 -9 4 -4 22 7 22 0 -2 -25
-11 -12 -24 -18 -30 -14 -6 3 -17 3 -23 -2 -15 -9 37 -21 64 -15 16 4 34 37
30 55 -1 4 2 7 7 7 5 0 11 27 13 60 1 33 1 60 -3 60 -16 0 -26 -26 -22 -60 3
-20 1 -40 -5 -44 -5 -3 -9 1 -8 10 1 13 -13 27 -42 41 -2 0 1 9 6 20 17 32 39
97 52 150 12 55 5 179 -11 189 -5 3 -9 -3 -9 -12 0 -10 -3 -15 -6 -11 -10 10
5 39 18 35 7 -3 16 -18 20 -34z"/>
<path d="M4584 5441 c9 -13 -36 -22 -51 -9 -18 15 -29 -17 -13 -37 10 -12 10
-15 -3 -15 -9 0 -19 9 -22 20 -3 11 -11 20 -17 20 -5 0 -7 -7 -4 -16 3 -9 6
-27 6 -41 0 -21 2 -24 15 -13 11 9 15 9 15 1 0 -14 -50 -35 -59 -25 -3 4 0 9
7 11 14 5 17 33 3 33 -5 0 -13 -9 -16 -20 -3 -11 -11 -20 -17 -20 -7 0 -7 -4
1 -13 6 -8 8 -17 4 -21 -4 -4 -1 -12 7 -17 13 -9 13 -10 0 -8 -34 3 -60 -2
-60 -12 0 -5 8 -9 18 -7 9 1 23 -1 31 -6 17 -11 33 12 25 36 -3 10 3 21 16 28
13 7 20 7 20 0 0 -5 -4 -10 -8 -10 -4 0 -7 -12 -6 -27 1 -16 -8 -40 -18 -55
-11 -16 -16 -28 -12 -28 3 0 1 -6 -5 -14 -9 -11 -9 -15 1 -19 8 -4 7 -6 -4 -6
-21 -1 -24 -17 -5 -24 9 -3 14 -28 15 -73 3 -98 7 -141 20 -203 7 -29 9 -58 5
-64 -4 -7 0 -8 11 -4 12 5 16 3 13 -5 -2 -7 -10 -12 -16 -10 -6 1 -11 -2 -11
-8 0 -14 24 -12 38 2 7 7 20 13 30 13 12 0 17 8 16 25 -1 14 3 28 7 31 5 3 10
17 11 32 1 15 6 27 9 27 6 0 17 33 24 70 0 3 7 16 14 28 7 14 10 36 7 50 -5
19 -4 23 3 13 7 -11 12 -5 20 24 7 26 7 41 0 45 -5 4 -7 14 -3 23 3 9 10 14
15 11 5 -3 9 2 9 10 0 9 -5 16 -12 16 -9 0 -9 3 0 12 19 19 15 58 -5 58 -15 0
-16 2 -3 10 13 8 13 11 1 19 -11 7 -10 11 5 21 19 11 19 11 0 6 -15 -5 -17 -2
-13 14 3 11 1 23 -4 26 -5 3 -7 9 -4 14 3 5 1 11 -5 15 -6 4 -8 10 -5 15 3 4
-2 13 -10 20 -8 7 -15 19 -15 26 0 8 -5 14 -11 14 -5 0 -8 -4 -5 -9z m-7 -43
c22 -28 35 -93 35 -181 0 -82 -5 -106 -42 -217 -23 -69 -43 -131 -44 -138 -1
-7 -7 -17 -13 -23 -9 -9 -12 1 -12 37 -1 27 -2 103 -4 169 -2 112 8 177 35
220 7 13 22 78 20 88 -1 4 3 7 8 7 19 0 10 31 -12 40 -23 9 -23 9 -2 9 12 1
26 -5 31 -11z"/>
<path d="M6774 5520 c-3 -3 -10 -6 -15 -6 -5 -1 -13 -2 -19 -3 -5 0 -10 -7
-10 -14 0 -7 -18 -20 -40 -30 -22 -9 -40 -24 -40 -33 0 -8 -4 -13 -9 -9 -11 6
-61 -55 -61 -73 0 -7 -13 -39 -30 -73 -16 -33 -31 -73 -34 -87 -2 -15 -9 -40
-15 -57 -6 -16 -13 -43 -15 -60 -2 -16 -6 -37 -9 -45 -31 -84 -33 -94 -41
-209 -4 -46 -9 -87 -11 -92 -3 -4 -1 -11 5 -14 6 -4 8 -15 5 -24 -10 -34 25
-49 140 -61 61 -6 144 -20 185 -31 62 -17 93 -19 178 -15 73 5 131 2 198 -10
54 -9 99 -12 104 -8 16 17 30 226 29 424 0 63 0 126 0 139 1 13 -4 30 -9 36
-6 7 -10 17 -9 21 4 17 -14 89 -29 119 -15 29 -17 34 -20 63 -1 6 -6 12 -11
12 -5 0 -26 17 -48 38 -70 66 -91 82 -104 82 -8 0 -34 7 -58 16 -43 14 -194
18 -207 4z m179 -36 c157 -35 239 -124 271 -294 14 -69 14 -356 1 -410 -3 -14
-6 -45 -7 -69 -1 -29 -8 -51 -20 -63 -11 -11 -17 -26 -14 -34 6 -17 7 -17 -69
-4 -33 5 -126 11 -207 12 -82 1 -148 5 -148 9 0 4 -18 10 -40 14 -22 4 -40 10
-40 13 0 7 -41 11 -115 11 -21 0 -55 3 -75 6 l-37 6 8 57 c4 31 10 71 13 87 2
17 5 50 5 74 1 24 3 42 6 39 9 -9 13 -138 4 -144 -12 -7 -12 -104 0 -104 12 0
19 68 9 78 -5 5 -2 9 7 9 10 0 15 -10 15 -32 0 -44 25 -65 48 -41 15 15 15 19
2 29 -8 7 -17 19 -19 27 -11 42 -20 114 -15 122 3 5 1 15 -5 22 -17 20 -14
125 4 171 9 22 18 48 21 57 4 10 13 15 22 11 13 -4 14 -3 3 5 -16 12 -10 32
35 126 38 78 38 76 25 76 -5 0 -13 -9 -16 -20 -3 -11 -11 -20 -16 -20 -15 0
27 74 50 88 20 12 29 4 14 -12 -14 -14 -10 -56 5 -56 8 0 12 6 8 15 -3 10 1
15 12 15 13 0 14 2 4 8 -10 7 -10 15 -2 36 6 17 6 25 0 21 -6 -3 -10 -3 -10 2
0 7 40 26 101 48 14 5 17 -10 10 -44 -1 -2 -7 2 -14 8 -14 11 -27 5 -27 -11 0
-5 5 -6 10 -3 6 3 10 -1 10 -10 0 -9 -5 -13 -11 -9 -8 4 -9 0 -4 -15 5 -16 3
-20 -9 -15 -9 3 -16 10 -16 15 0 5 -5 9 -11 9 -8 0 -9 -13 -5 -40 5 -31 2 -44
-13 -59 -12 -12 -17 -27 -14 -44 3 -14 0 -33 -6 -44 -9 -16 -11 -16 -12 7 -2
14 -3 32 -5 40 -1 8 -2 23 -3 33 -1 9 -8 17 -17 17 -14 0 -15 -6 -8 -37 16
-76 3 -277 -27 -398 -24 -95 -33 -185 -20 -185 6 0 10 3 9 8 -2 11 11 83 22
118 17 53 48 247 49 303 0 38 6 57 17 66 10 7 18 29 20 55 1 24 8 46 15 50 7
5 10 21 7 39 -5 36 10 54 19 22 3 -12 10 -21 15 -21 6 0 8 7 4 15 -3 8 0 15 5
15 6 0 9 9 6 20 -3 11 -1 20 5 20 5 0 7 4 3 9 -10 17 12 21 25 6 22 -27 32
-16 13 15 -16 27 -16 32 -3 40 13 9 13 10 0 11 -8 1 -1 5 15 9 17 4 31 8 33 9
2 0 35 -6 75 -15z"/>
<path d="M6920 5374 c0 -4 11 -17 26 -30 22 -22 43 -28 82 -27 6 1 12 -6 12
-15 0 -8 7 -20 16 -26 13 -10 14 -19 6 -52 -6 -21 -16 -61 -23 -89 -7 -27 -15
-54 -19 -60 -4 -5 -6 -29 -5 -52 2 -35 0 -42 -17 -45 -18 -3 -18 -5 -4 -23
l16 -20 -6 20 c-4 13 -3 16 3 8 5 -7 9 -42 9 -78 -1 -36 2 -65 7 -65 4 0 7 -8
7 -19 0 -10 7 -36 16 -56 8 -21 13 -46 11 -57 -5 -18 17 -27 26 -10 6 9 -15
113 -27 131 -11 18 -15 202 -5 249 4 20 13 60 20 87 6 28 17 79 23 115 l13 65
11 -40 c44 -162 48 -476 6 -542 -8 -13 -12 -23 -8 -23 3 0 -1 -12 -11 -26 -9
-14 -13 -30 -8 -35 18 -18 47 25 59 87 5 22 9 42 10 47 1 4 2 18 3 32 0 14 10
33 21 42 11 10 20 22 20 28 0 5 -5 3 -10 -5 -5 -8 -10 -13 -10 -10 -1 3 -3 23
-6 45 -6 41 10 41 18 0 3 -18 4 -18 11 -2 4 11 0 24 -11 35 -18 18 -25 115 -9
140 5 6 4 12 -1 12 -9 0 -15 16 -29 70 -2 8 -6 35 -9 60 -3 25 -10 46 -14 48
-5 2 -7 9 -4 16 6 16 -24 48 -40 43 -10 -3 -12 -7 -15 -42 0 -8 -6 -15 -12
-15 -6 0 -8 7 -5 16 3 8 2 13 -3 10 -5 -3 -11 1 -15 9 -3 9 -19 15 -41 15 -22
0 -43 8 -55 20 -21 21 -30 25 -30 14z"/>
<path d="M6860 5355 c-14 -16 -4 -39 14 -32 33 13 53 -45 62 -178 14 -195 11
-233 -24 -312 -34 -77 -44 -125 -18 -88 7 11 13 22 12 25 0 3 7 16 17 30 9 13
17 32 17 41 0 10 5 19 11 21 6 2 12 16 12 31 0 15 2 27 6 27 8 0 5 89 -3 97
-3 3 4 15 17 26 14 13 16 18 6 14 -12 -4 -16 1 -16 19 0 13 3 25 8 25 5 1 15
2 22 3 7 1 11 12 9 28 -1 16 3 28 13 32 24 9 9 24 -19 19 -19 -4 -23 -11 -22
-35 0 -17 -4 -33 -11 -35 -9 -3 -11 10 -9 44 2 26 -3 71 -11 98 -7 28 -15 55
-16 60 -14 50 -52 70 -77 40z"/>
<path d="M6826 5308 c-10 -30 -46 -186 -52 -218 -15 -91 -12 -170 12 -275 2
-11 7 -34 10 -52 6 -29 43 -77 45 -57 0 5 2 21 4 37 2 16 -1 27 -8 27 -7 0
-13 17 -15 37 -1 20 -6 39 -10 43 -10 7 -12 33 -13 141 0 87 27 238 56 312 5
12 2 17 -9 17 -9 0 -18 -6 -20 -12z"/>
<path d="M6314 4539 c-7 -13 -17 -42 -23 -64 -41 -149 -84 -276 -91 -266 -5 9
-9 6 -13 -8 -3 -14 0 -21 9 -21 20 0 17 -13 -6 -28 -13 -8 -20 -23 -20 -42 0
-17 -4 -30 -8 -30 -4 0 -8 -8 -9 -17 -1 -10 -5 -30 -9 -45 -4 -18 -2 -28 5
-28 6 0 14 12 17 26 5 18 9 22 14 13 5 -7 6 -19 3 -28 -4 -11 -3 -13 4 -6 6 6
13 23 17 39 6 24 4 28 -10 22 -12 -5 -15 -2 -9 11 3 10 9 30 12 46 3 15 9 30
14 33 5 3 6 -2 3 -10 -8 -22 9 -20 37 3 20 16 22 21 10 35 -11 13 -16 14 -22
4 -14 -21 -10 4 11 62 10 30 19 49 19 42 1 -7 6 -10 11 -7 15 9 12 25 -5 25
-13 0 -13 6 2 43 9 23 23 50 31 59 8 10 12 28 10 43 -4 17 0 29 11 35 14 8 14
11 1 20 -13 8 -13 10 3 10 9 0 17 5 17 11 0 5 -4 8 -9 4 -5 -3 -11 5 -13 17
-3 21 -3 21 -14 -3z"/>
<path d="M5132 4473 c-6 -2 -9 -9 -6 -15 4 -7 9 -6 14 2 5 8 9 7 13 -4 4 -11
1 -16 -11 -16 -16 -1 -16 -2 1 -14 12 -9 14 -15 6 -18 -7 -2 -2 -17 15 -42 14
-21 26 -48 26 -58 0 -11 6 -32 14 -46 8 -15 20 -48 26 -74 11 -43 30 -66 30
-36 0 6 3 9 6 5 4 -3 3 -14 -1 -24 -11 -26 -14 -93 -4 -93 5 0 9 17 9 38 0 27
3 33 10 22 5 -8 10 -27 10 -42 0 -22 4 -26 18 -22 13 5 14 4 3 -4 -15 -11 -8
-62 9 -62 6 0 10 -11 10 -25 0 -18 5 -25 19 -25 11 0 23 5 26 10 3 6 1 10 -4
10 -6 0 -11 4 -11 10 0 5 7 7 15 4 10 -4 15 0 15 11 0 11 -5 15 -15 11 -14 -5
-14 -4 0 16 8 13 15 35 15 50 0 28 15 38 23 16 2 -7 7 -11 10 -8 9 9 -4 51
-13 45 -5 -3 -11 -1 -15 5 -3 5 -1 10 4 10 6 0 11 12 12 28 0 19 4 12 14 -26
15 -52 18 -67 30 -132 12 -64 50 -160 62 -160 7 0 13 4 13 9 0 5 5 22 12 38 6
15 10 36 9 46 -1 10 4 17 13 17 9 0 16 -8 16 -20 0 -10 5 -30 11 -43 8 -17 8
-30 1 -44 -8 -15 -7 -25 3 -39 7 -11 16 -37 20 -57 14 -73 40 -39 61 79 9 49
22 103 30 121 8 17 14 38 14 46 0 9 5 19 10 22 12 7 14 35 2 35 -12 0 -40 -60
-58 -127 -9 -35 -20 -63 -24 -63 -5 0 -6 -17 -3 -37 2 -21 0 -49 -6 -63 l-10
-25 0 27 c-1 15 -5 29 -10 32 -5 3 -7 24 -4 46 4 26 2 40 -6 40 -6 0 -11 18
-11 45 0 35 -4 45 -16 45 -12 0 -15 6 -10 25 4 17 2 25 -7 25 -17 0 -35 -38
-43 -90 -4 -22 -11 -40 -16 -40 -5 0 -6 9 -3 20 4 12 2 20 -5 20 -7 0 -10 6
-7 14 3 7 2 17 -3 22 -5 5 -10 26 -12 47 -1 21 -6 41 -10 43 -5 3 -6 10 -2 15
9 15 -24 114 -47 140 -14 17 -19 19 -15 7 3 -12 1 -15 -10 -11 -10 4 -14 -2
-14 -20 0 -14 -4 -28 -9 -32 -5 -3 -12 -19 -16 -35 -4 -17 -11 -30 -15 -30 -5
0 -6 8 -3 17 5 13 2 15 -12 10 -15 -6 -16 -5 -5 8 13 15 13 15 -35 81 -8 11
-22 47 -31 80 -8 32 -19 63 -25 69 -5 5 -9 19 -9 31 0 12 -7 24 -15 28 -8 3
-15 12 -15 21 0 18 -29 65 -39 64 -3 0 -12 -3 -19 -6z"/>
<path d="M6029 4113 c-1 -4 -2 -14 -3 -20 0 -7 -14 -27 -30 -44 -16 -17 -30
-38 -31 -47 -1 -10 -9 -35 -19 -56 -9 -22 -19 -51 -23 -65 -3 -13 -12 -36 -19
-50 -18 -34 -17 -41 4 -41 16 0 51 61 81 143 6 15 15 27 21 27 5 0 15 20 21
45 10 41 13 44 25 28 7 -10 16 -44 20 -76 6 -50 18 -77 29 -66 7 8 -22 166
-35 193 -15 29 -39 46 -41 29z"/>
<path d="M4570 3589 c0 -5 3 -9 8 -10 4 0 21 -2 37 -4 17 -2 59 -6 94 -10 35
-3 71 -10 80 -14 9 -5 31 -7 49 -6 17 1 32 -2 32 -7 0 -5 -4 -6 -10 -3 -5 3
-10 1 -10 -4 0 -11 14 -15 39 -11 8 1 17 -4 22 -11 4 -8 11 -10 16 -6 4 5 1
12 -7 17 -19 11 -8 22 14 14 9 -3 13 -11 10 -16 -4 -6 1 -6 13 0 15 9 23 7 36
-9 10 -11 12 -19 5 -19 -6 0 -9 -2 -6 -5 8 -9 38 6 32 16 -5 9 37 8 46 -1 3
-3 15 -11 28 -18 18 -10 22 -10 22 0 0 10 2 10 8 0 5 -7 17 -14 28 -16 38 -8
134 -48 130 -54 -2 -4 17 -8 42 -8 31 -1 50 -7 59 -20 12 -17 13 -16 13 5 0
12 -4 19 -10 16 -5 -3 -10 -2 -10 4 0 5 -19 12 -41 16 -50 9 -109 32 -109 43
0 11 -101 43 -112 36 -4 -3 -8 0 -8 7 0 8 -11 10 -35 6 -19 -3 -35 -2 -35 3 0
13 -116 47 -190 57 -14 2 -68 5 -120 8 -52 3 -110 7 -127 9 -18 3 -33 1 -33
-5z"/>
<path d="M4400 3479 c0 -4 -6 -6 -14 -3 -8 3 -17 0 -21 -6 -5 -8 -11 -8 -21 1
-11 9 -17 9 -29 -1 -8 -7 -15 -8 -15 -3 0 10 -242 9 -320 -2 -66 -9 -120 -25
-120 -34 0 -10 64 -7 145 8 68 12 147 12 139 -1 -7 -11 22 -22 36 -13 7 4 73
9 148 11 204 5 248 4 280 -5 16 -5 35 -5 43 -1 14 8 74 -5 149 -31 19 -7 41
-14 48 -15 7 -2 10 -8 7 -14 -4 -6 -11 -7 -17 -4 -6 4 -6 -2 1 -15 9 -16 9
-21 0 -21 -8 0 -8 -4 1 -15 7 -9 21 -13 30 -10 12 4 19 -1 23 -15 3 -12 13
-20 26 -20 28 0 26 14 -5 35 -14 9 -23 19 -20 22 3 4 15 -2 26 -12 20 -18 21
-18 35 1 10 13 14 14 13 4 -2 -9 6 -16 21 -18 15 -2 20 -7 12 -11 -17 -11 -2
-41 21 -41 13 0 18 5 15 14 -4 10 -1 13 9 9 10 -4 13 0 8 13 -4 12 -3 15 3 7
4 -6 20 -14 35 -18 34 -9 62 -40 52 -57 -4 -7 -3 -10 1 -5 9 8 55 -30 55 -46
0 -5 14 -25 30 -44 17 -18 30 -39 29 -46 0 -7 -7 -2 -16 11 -8 12 -21 22 -28
22 -7 0 -15 9 -18 20 -9 35 -40 21 -51 -23 -5 -20 -2 -29 9 -33 8 -4 15 -13
15 -21 0 -12 -3 -13 -13 -4 -8 6 -24 12 -38 15 -13 2 -23 8 -22 14 2 6 -9 20
-24 31 -19 15 -21 21 -9 21 9 0 16 5 16 10 0 6 -3 9 -7 9 -5 -1 -17 -1 -28 0
-18 2 -18 3 4 15 21 12 26 11 42 -5 20 -20 59 -26 59 -9 0 6 -7 13 -15 16 -8
4 -12 10 -9 16 3 5 14 2 25 -8 10 -9 19 -12 19 -7 0 18 -51 47 -60 34 -10 -17
-37 -3 -43 21 -4 16 -11 19 -28 15 -29 -8 -59 9 -59 33 0 11 -7 20 -15 20 -8
0 -15 -7 -15 -15 0 -8 5 -15 10 -15 6 0 10 -7 10 -15 0 -8 5 -15 12 -15 6 0 9
-3 5 -6 -3 -3 -18 3 -34 14 -29 20 -72 37 -85 34 -5 -1 -8 2 -8 8 0 5 -7 10
-15 10 -8 0 -15 5 -15 10 0 6 -11 15 -25 20 -14 5 -25 14 -25 20 0 6 7 6 20
-2 23 -14 33 -8 24 16 -4 10 -13 15 -21 12 -8 -3 -11 -1 -8 4 3 6 2 10 -2 10
-5 0 -16 -12 -25 -27 -19 -30 -25 -15 -8 17 8 15 6 21 -9 30 -11 5 -30 10 -43
10 l-23 0 24 -13 c14 -6 27 -19 29 -27 4 -12 1 -11 -15 3 -24 21 -33 22 -33 3
0 -8 -6 -17 -12 -19 -7 -3 -4 -6 6 -6 27 -1 11 -14 -18 -16 -17 0 -28 7 -35
22 -6 13 -7 23 -2 23 5 0 12 -7 15 -16 5 -14 8 -14 21 0 17 17 20 30 4 21 -5
-4 -18 0 -27 7 -23 20 -103 13 -95 -8 3 -8 11 -14 18 -14 15 0 45 -27 45 -40
0 -5 -10 -12 -22 -16 -13 -4 -25 -10 -28 -13 -3 -4 -17 -14 -32 -24 -44 -28
-46 -59 -7 -138 29 -60 36 -69 60 -69 15 0 31 -5 35 -11 7 -12 167 -89 222
-107 18 -6 52 -27 76 -47 24 -19 48 -35 54 -35 6 0 12 -4 14 -8 2 -5 36 -32
75 -61 40 -29 76 -58 80 -65 10 -17 53 -31 53 -17 0 6 7 8 15 5 11 -5 15 1 15
19 0 14 -7 28 -16 31 -16 6 -16 8 0 24 20 23 20 32 2 32 -15 0 -28 51 -20 77
4 12 3 14 -3 6 -13 -18 -35 1 -31 28 2 16 -2 23 -10 21 -9 -2 -11 4 -7 18 3
11 3 20 -2 20 -4 0 -9 11 -9 25 -2 21 1 24 12 14 11 -9 21 -9 39 -1 15 7 25 8
25 2 0 -6 5 -10 11 -10 6 0 9 7 5 15 -3 9 0 15 10 15 19 0 31 -30 15 -39 -6
-4 -27 -6 -46 -5 -38 3 -48 -5 -35 -26 8 -12 13 -13 29 -3 17 11 19 10 15 -2
-4 -8 -10 -15 -14 -15 -5 0 -6 -9 -3 -20 3 -11 12 -20 19 -20 17 0 18 17 2 23
-8 3 -6 6 5 6 9 1 17 -6 17 -15 0 -17 28 -49 36 -41 3 3 1 14 -5 25 -9 17 -6
23 15 36 13 9 22 21 19 26 -4 6 -2 10 4 10 6 0 13 -11 17 -25 3 -14 10 -25 14
-25 4 0 8 -11 8 -24 0 -15 -5 -23 -13 -20 -7 3 -15 -4 -18 -15 -3 -12 -10 -21
-17 -21 -6 0 -8 5 -5 10 3 6 -3 10 -15 10 -13 0 -20 -5 -17 -12 2 -8 19 -13
41 -12 20 1 36 -3 36 -7 0 -5 -5 -9 -11 -9 -8 0 -7 -5 2 -16 10 -13 10 -17 -2
-24 -10 -7 -11 -12 -3 -20 9 -9 15 -6 26 9 15 21 15 21 33 1 35 -39 48 -14 20
39 -8 16 -17 44 -19 62 -13 78 -19 101 -32 106 -7 2 -16 19 -20 36 -3 17 -16
39 -28 49 -11 9 -17 17 -13 18 8 0 -7 21 -35 48 -10 9 -18 23 -18 31 0 18 -46
61 -66 61 -7 0 -14 6 -14 13 0 16 -36 47 -45 39 -4 -4 -13 2 -21 12 -8 11 -14
17 -14 13 0 -4 -10 -2 -22 5 -13 6 -29 13 -36 14 -8 1 -23 10 -33 20 -21 19
-38 25 -77 28 -12 0 -20 6 -18 12 2 5 -10 11 -28 11 -17 1 -54 13 -82 27 -27
14 -59 25 -70 25 -10 0 -57 2 -104 6 -164 12 -200 13 -200 4z m357 -281 c18
-5 37 -7 43 -3 5 3 10 0 10 -8 0 -8 25 -31 55 -51 57 -38 71 -60 33 -52 -122
25 -172 41 -194 63 -13 13 -24 30 -24 38 0 8 -5 15 -11 15 -5 0 -7 5 -4 10 6
10 31 7 92 -12z"/>
<path d="M6500 3454 c-19 -3 -44 -9 -55 -13 -11 -5 -40 -18 -65 -29 -25 -10
-67 -27 -95 -37 -27 -10 -56 -23 -63 -28 -6 -5 -27 -12 -45 -16 -19 -4 -36
-15 -42 -29 -5 -12 -14 -22 -19 -22 -4 0 -3 -6 3 -14 9 -11 9 -16 -1 -23 -15
-10 -52 -73 -42 -73 3 0 1 -7 -6 -15 -7 -8 -9 -15 -5 -15 5 0 0 -8 -9 -19 -9
-10 -16 -22 -14 -27 4 -16 -13 -84 -21 -84 -5 0 -18 -29 -30 -65 -12 -37 -28
-76 -36 -88 -23 -37 -54 -197 -38 -197 5 0 15 29 22 65 7 36 16 63 20 61 3 -2
7 7 7 20 1 13 11 41 22 63 11 21 18 41 16 44 -3 3 4 8 15 12 12 3 22 11 22 16
4 26 30 81 44 92 6 4 5 11 -5 17 -13 9 -13 10 0 10 10 0 20 18 28 54 23 97 84
185 150 216 176 81 280 103 431 91 63 -5 120 -7 128 -4 7 3 59 0 115 -6 57 -7
126 -14 153 -17 28 -3 73 -16 100 -29 28 -13 82 -35 120 -50 39 -14 89 -34
113 -45 23 -11 42 -15 42 -10 0 11 -70 60 -86 60 -6 0 -26 7 -44 16 l-33 17
23 17 c30 23 20 27 -70 29 -41 2 -77 4 -80 6 -13 8 -129 22 -240 30 -222 17
-388 24 -430 19z"/>
<path d="M6590 3299 c0 -10 -60 -17 -66 -7 -3 4 -10 8 -15 8 -6 0 -8 -4 -5 -9
3 -5 -3 -11 -14 -14 -10 -3 -21 0 -24 7 -2 6 -5 3 -5 -6 -1 -10 -6 -18 -13
-18 -12 0 -121 -79 -126 -92 -2 -4 -8 -8 -14 -8 -17 0 -90 -78 -83 -89 3 -6 1
-11 -4 -11 -6 0 -11 -9 -11 -20 0 -11 -4 -28 -10 -38 -5 -9 -16 -33 -24 -52
-8 -19 -35 -70 -60 -112 -44 -76 -44 -77 -25 -97 11 -12 22 -21 25 -21 5 0
169 97 189 112 20 16 202 104 260 128 72 29 125 61 125 76 0 6 7 17 16 24 8 8
21 28 29 47 8 18 18 33 23 33 16 0 12 74 -5 112 -12 25 -28 41 -48 48 -34 11
-115 11 -115 -1z m21 -162 c4 -5 12 -6 18 -3 6 4 11 2 11 -3 0 -6 -7 -11 -15
-11 -8 0 -15 -3 -15 -7 0 -5 -12 -17 -27 -27 -14 -11 -23 -14 -19 -8 4 7 2 12
-3 12 -6 0 -11 -4 -11 -9 0 -5 -11 -12 -25 -15 -33 -9 -32 -25 1 -18 19 3 25
1 20 -7 -4 -6 -23 -11 -42 -11 -19 0 -46 -7 -59 -16 -38 -25 -55 -13 -42 29 8
26 23 40 64 62 29 16 55 35 58 42 5 16 75 8 86 -10z"/>
<path d="M5343 2755 c0 -19 3 -35 8 -35 5 0 9 -22 9 -50 0 -48 -1 -49 -19 -33
-11 9 -17 22 -14 29 3 8 0 14 -6 14 -6 0 -15 15 -20 33 -5 17 -10 24 -10 13
-1 -17 -2 -17 -27 -1 -14 9 -28 15 -30 13 -8 -8 21 -58 34 -58 6 0 12 -10 12
-22 1 -23 1 -23 16 -3 16 20 16 20 9 -3 -6 -19 -2 -25 24 -35 l31 -11 -1 -77
c-1 -43 2 -82 5 -87 3 -6 6 -44 7 -86 1 -42 5 -76 9 -76 15 0 17 25 9 115 -5
50 -9 159 -9 243 -1 136 -3 152 -19 152 -12 0 -17 -9 -18 -35z"/>
<path d="M5275 1973 c-44 -18 -89 -38 -100 -43 -11 -5 -44 -31 -74 -59 -30
-28 -58 -51 -63 -51 -4 0 -8 -6 -8 -14 0 -7 -10 -16 -22 -19 -17 -5 -19 -9 -9
-20 19 -23 44 -10 121 64 65 64 150 119 182 119 12 0 68 45 68 55 0 8 -11 4
-95 -32z"/>
<path d="M5860 1992 c0 -4 23 -25 50 -46 52 -40 61 -49 35 -40 -8 4 -15 1 -15
-5 0 -6 0 -14 0 -18 0 -5 10 -9 23 -10 28 -2 132 -53 205 -101 29 -19 56 -32
59 -28 11 10 -48 65 -104 96 -29 17 -53 34 -53 38 0 4 -19 16 -41 27 -22 10
-46 27 -52 36 -24 33 -107 73 -107 51z"/>
<path d="M5847 1447 c-36 -73 -38 -126 -6 -160 10 -11 16 -23 14 -28 -12 -19
36 6 61 32 15 16 34 29 41 29 7 0 10 6 8 13 -2 6 -6 31 -9 55 -6 57 -25 84
-63 88 -26 3 -32 -1 -46 -29z"/>
<path d="M2447 5103 c3 -32 6 -71 7 -88 0 -16 4 -32 8 -36 4 -3 3 -21 -2 -40
-6 -18 -6 -35 -2 -37 4 -1 5 -28 2 -60 -5 -37 -3 -60 4 -64 8 -5 7 -8 -1 -8
-7 0 -13 -5 -13 -11 0 -5 5 -7 10 -4 6 4 10 -10 10 -34 0 -41 10 -51 27 -28
11 15 17 142 7 159 -4 6 -8 43 -8 82 -2 98 -25 226 -41 226 -9 0 -11 -15 -8
-57z"/>
<path d="M10780 3090 c-11 -7 -8 -10 16 -10 18 0 46 -11 67 -27 32 -24 36 -33
37 -71 0 -45 -33 -131 -55 -144 -7 -5 -16 -30 -20 -57 -4 -26 -13 -61 -22 -77
-25 -49 -33 -74 -23 -74 6 0 10 6 10 13 0 7 11 23 25 35 14 12 28 36 32 53 3
17 12 33 20 36 11 4 10 8 -3 18 -18 13 -11 35 11 35 7 0 16 13 20 30 4 16 11
32 16 35 5 4 9 11 9 16 0 6 -4 7 -10 4 -15 -9 -12 5 5 22 17 16 19 100 3 109
-4 3 -8 16 -8 30 0 13 -4 24 -10 24 -5 0 -10 -5 -10 -11 0 -5 -5 -7 -10 -4 -6
4 -8 11 -5 16 8 12 -76 11 -95 -1z"/>
<path d="M4490 2230 c-1 -3 -4 -18 -6 -34 -4 -36 -12 -44 -25 -26 -8 12 -12
12 -16 2 -4 -10 -8 -9 -19 5 -13 17 -13 17 -14 -4 0 -18 6 -23 24 -23 14 0 27
-4 30 -9 3 -4 32 -11 63 -15 32 -4 65 -11 73 -16 10 -7 -3 -8 -40 -4 -64 7
-59 -11 5 -20 22 -3 60 -8 84 -12 31 -5 42 -4 37 4 -4 6 -13 9 -21 5 -9 -3
-15 1 -16 8 0 8 -2 24 -3 37 -2 13 3 22 11 22 7 0 13 -4 13 -10 0 -5 5 -10 10
-10 7 0 7 6 1 19 -10 18 -52 41 -101 56 -23 7 -24 7 -10 -10 14 -17 13 -18 -6
-13 -12 3 -28 2 -35 -3 -10 -6 -17 1 -26 24 -6 18 -12 30 -13 27z"/>
<path d="M4252 2109 c2 -8 20 -16 38 -19 36 -5 54 -29 23 -31 -10 -1 -22 0
-28 1 -31 7 -87 5 -92 -3 -3 -5 -9 -3 -14 4 -8 12 -11 11 -19 -1 -7 -11 -10
-11 -10 -2 0 7 -4 11 -9 8 -5 -4 -11 -2 -13 4 -5 17 -67 18 -177 4 -58 -8
-111 -12 -117 -10 -6 3 -29 0 -50 -5 -22 -6 -48 -11 -59 -13 -11 -2 -20 -4
-20 -6 0 -1 -13 -4 -30 -6 -16 -3 -44 -11 -61 -19 -17 -8 -53 -17 -80 -20 -27
-3 -53 -11 -59 -18 -5 -7 -22 -11 -37 -9 -20 2 -28 -1 -28 -12 0 -18 -25 -22
-35 -6 -3 6 -12 10 -18 9 -9 0 -9 -2 1 -6 18 -7 15 -23 -5 -23 -14 0 -15 -2
-4 -9 16 -10 6 -52 -12 -48 -6 1 -11 -4 -12 -11 0 -7 -5 -16 -10 -20 -6 -4
-16 -18 -22 -32 -6 -14 -12 -19 -12 -11 -1 8 8 34 20 58 12 24 19 52 16 63 -3
10 0 21 7 24 7 3 6 8 -4 15 -10 7 -11 11 -2 11 6 0 12 6 12 13 0 7 6 19 13 25
15 16 17 64 2 59 -5 -2 -12 -14 -13 -28 -2 -13 -9 -30 -14 -36 -9 -12 -39
-122 -72 -265 -7 -32 -9 -58 -5 -58 4 0 10 8 12 18 3 9 5 2 6 -15 1 -36 15
-45 19 -13 1 11 3 29 4 39 1 11 6 17 10 15 15 -10 8 9 -9 23 -10 8 -12 12 -6
8 8 -3 19 7 28 27 13 28 14 29 10 7 -5 -28 13 -94 23 -84 7 6 4 80 -4 107 -3
12 9 23 48 41 60 27 144 100 134 115 -4 7 4 8 26 1 19 -5 34 -5 38 0 3 5 25
12 50 15 25 3 63 11 85 17 22 7 42 13 45 14 20 5 196 18 245 18 94 0 307 -12
338 -19 20 -4 27 -2 27 10 0 8 -5 18 -11 22 -6 3 -8 18 -5 33 5 20 4 22 -4 11
-7 -10 -12 -12 -17 -4 -5 6 -17 13 -28 16 -11 3 -28 9 -39 13 -14 6 -18 4 -14
-6z"/>
<path d="M9545 1720 c-38 -3 -125 -4 -193 -2 -84 3 -127 0 -137 -8 -8 -7 -42
-10 -84 -9 -39 1 -74 -1 -78 -4 -12 -13 -52 -7 -61 8 -7 13 -16 14 -58 5 -27
-6 -77 -12 -112 -13 -35 -1 -66 -7 -70 -14 -7 -10 -70 -21 -139 -24 -40 -2
-86 -45 -63 -59 12 -7 183 -8 200 0 3 1 24 1 48 0 23 -1 42 3 42 8 0 5 11 12
25 14 14 3 25 1 25 -3 0 -5 -10 -10 -22 -11 -13 -1 33 -5 102 -8 69 -3 131 -2
139 1 8 4 26 4 40 0 36 -9 152 -1 145 10 -3 5 -1 9 5 9 5 0 12 -6 14 -12 4 -9
8 -10 14 -2 4 6 15 11 23 11 8 1 44 4 80 7 36 4 162 10 281 15 200 8 259 17
259 39 0 14 -59 52 -65 42 -3 -5 -18 -7 -33 -5 -52 8 -258 11 -327 5z m305
-33 c0 -5 16 -7 35 -4 19 3 35 2 35 -3 0 -5 -34 -8 -76 -8 -41 0 -78 -3 -81
-6 -4 -3 -12 -1 -19 5 -8 6 -22 8 -31 4 -10 -4 -52 -8 -93 -10 -41 -1 -98 -8
-125 -14 -28 -7 -72 -10 -97 -7 -30 2 -49 0 -52 -8 -3 -8 -7 -7 -14 2 -8 12
-14 11 -39 -1 -16 -9 -38 -14 -49 -13 -10 2 -33 0 -51 -5 -28 -6 -33 -4 -33
11 0 28 -21 36 -39 14 -9 -11 -25 -23 -36 -27 -16 -6 -15 -3 5 13 23 18 23 20
5 20 -11 0 -26 -9 -33 -20 -7 -12 -17 -18 -23 -14 -6 3 -3 11 7 19 16 11 15
12 -7 11 -15 -1 -23 -7 -21 -16 3 -11 0 -11 -13 0 -20 17 -165 22 -184 7 -7
-6 -53 -12 -101 -12 -93 0 -101 10 -15 18 28 2 58 8 68 12 11 4 57 8 103 9 67
1 84 4 84 16 0 11 3 12 8 3 11 -17 661 -7 678 10 8 8 204 1 204 -6z"/>
<path d="M3200 1606 c-6 -5 -53 -12 -140 -21 -53 -5 -692 -10 -1823 -14 -87 0
-176 2 -198 5 -47 7 -144 -20 -177 -49 -24 -22 -38 -62 -47 -139 -3 -26 -10
-50 -16 -53 -5 -4 -9 -28 -9 -56 0 -44 4 -53 39 -88 l39 -39 98 -1 c66 -1 100
-5 106 -14 5 -8 8 -8 8 -1 0 7 9 14 20 17 14 4 20 0 20 -11 0 -13 3 -12 15 4
8 10 15 14 15 7 0 -8 11 -11 30 -8 17 2 30 -1 30 -7 0 -7 4 -7 13 0 8 7 64 12
138 12 68 0 138 3 154 5 53 9 365 12 365 3 0 -9 36 -5 46 4 3 4 16 3 28 -1 11
-4 93 -4 181 0 88 4 275 8 415 9 140 1 273 4 295 6 22 2 110 6 195 9 l155 6 1
-23 c6 -88 24 -183 38 -194 9 -6 16 -19 16 -28 0 -21 87 -109 100 -101 5 3 15
-4 22 -15 7 -12 32 -30 56 -41 24 -11 59 -36 77 -55 37 -38 56 -42 79 -18 19
18 19 20 6 45 -8 15 -7 23 4 34 18 18 27 19 23 3 -1 -7 4 -13 12 -13 11 0 14
18 12 89 -3 97 -16 151 -31 126 -7 -10 -10 4 -12 45 -3 102 0 228 6 267 5 30
3 38 -9 38 -9 0 -15 -9 -15 -23 0 -13 -3 -27 -7 -31 -4 -3 -8 -14 -10 -24 -6
-35 -14 -97 -14 -107 1 -5 3 -41 5 -80 2 -38 11 -98 19 -132 9 -34 16 -81 14
-103 -2 -46 6 -45 -107 -15 -68 18 -105 34 -97 41 2 3 16 0 30 -5 18 -7 27 -7
30 2 3 8 13 4 31 -12 28 -26 33 -22 15 10 -5 11 -14 17 -19 14 -5 -3 -12 0
-16 6 -4 8 -8 8 -13 0 -14 -21 -48 2 -86 60 -36 52 -51 65 -71 57 -10 -5 -22
26 -30 82 -4 30 -7 59 -5 64 1 5 -3 12 -8 15 -18 12 -10 224 10 247 6 7 9 40
8 74 -2 49 -5 60 -18 58 -17 -4 -18 -18 -7 -83 l6 -40 -12 34 c-25 67 -33 44
-33 -96 l0 -138 -25 2 c-48 4 -116 3 -235 -3 -158 -7 -173 -7 -220 -6 -22 1
-89 0 -150 -3 -60 -2 -181 -6 -267 -8 -87 -2 -160 -6 -163 -9 -3 -3 -29 -1
-57 4 -28 5 -68 6 -87 3 -34 -7 -165 -7 -206 -1 -11 2 -23 2 -27 -1 -12 -6
-364 -15 -583 -14 -258 1 -296 2 -290 11 2 4 -7 13 -21 21 -44 23 -69 90 -39
106 9 5 16 30 18 71 5 69 21 96 72 117 30 13 151 15 170 3 10 -6 208 -12 310
-9 63 2 139 9 185 17 19 4 53 7 75 6 22 0 54 0 70 1 29 2 146 2 485 0 85 -1
238 -2 340 -2 102 0 221 -2 265 -4 44 -3 84 -2 89 1 14 8 71 7 84 -2 7 -4 16
-5 20 -2 18 11 70 18 120 17 43 0 53 2 49 14 -5 11 6 15 46 17 38 2 52 7 52
18 0 10 -12 16 -35 18 -20 2 -38 1 -40 -2z"/>
<path d="M7355 1359 c-4 -11 -4 -23 -1 -26 3 -3 -1 -11 -7 -18 -13 -12 -27
-54 -44 -132 -7 -29 -7 -46 1 -54 8 -9 8 -10 -1 -5 -13 7 -73 -108 -73 -141 0
-24 -37 -43 -85 -43 -19 0 -37 -5 -41 -11 -4 -7 -21 -9 -45 -5 -48 8 -55 -4
-24 -38 29 -31 60 -34 77 -6 8 12 28 23 51 27 38 6 97 59 97 88 0 7 6 16 13
18 9 4 9 8 -2 15 -8 6 -9 12 -3 16 5 3 17 -5 26 -19 20 -31 20 -39 0 -31 -12
4 -14 1 -9 -14 5 -15 2 -20 -12 -20 -15 0 -16 -2 -3 -10 19 -13 61 -12 80 0
13 9 13 11 0 20 -8 5 -15 13 -15 17 0 22 -29 73 -41 73 -8 0 -14 8 -13 18 0 9
3 12 5 5 7 -17 34 -4 27 13 -3 7 2 17 12 20 9 4 14 13 11 20 -3 7 -1 16 4 19
5 3 7 12 3 20 -3 8 -1 15 4 15 5 0 9 8 10 18 1 9 4 35 7 57 12 94 13 115 6
115 -5 0 -12 -9 -15 -21z"/>
<path d="M6476 1343 c-4 -9 -1 -20 6 -25 9 -5 9 -8 1 -8 -12 0 -12 -37 1 -58
4 -7 5 -16 1 -21 -7 -12 24 -152 36 -166 5 -5 9 -20 9 -32 0 -13 9 -43 20 -65
24 -50 24 -49 5 -42 -8 4 -15 1 -15 -6 0 -8 8 -10 21 -7 12 3 34 -4 56 -19 40
-27 59 -30 66 -11 2 7 14 0 31 -20 15 -18 32 -33 37 -33 6 0 26 16 46 35 20
19 42 35 50 35 8 0 13 6 12 13 -3 24 1 38 10 33 5 -3 16 5 25 19 9 13 12 26 7
29 -5 4 -7 16 -4 29 2 13 -5 5 -19 -19 -40 -70 -44 -75 -69 -78 -13 -1 -36 -6
-50 -10 -15 -4 -44 -3 -64 3 -46 12 -63 5 -38 -16 16 -14 15 -14 -7 0 -14 8
-25 21 -25 28 -2 25 -43 107 -60 116 -18 11 -36 106 -40 219 -1 39 -5 77 -9
83 -11 16 -33 13 -40 -6z"/>
<path d="M4444 1333 c14 -46 6 -168 -17 -288 -14 -71 -28 -138 -32 -147 -4
-11 -3 -18 5 -18 6 0 14 9 17 20 3 11 9 20 13 20 9 0 48 159 51 210 2 19 6 40
10 45 4 6 9 30 11 55 1 25 8 48 13 53 7 4 6 10 -1 15 -6 4 -16 17 -23 30 -14
27 -55 31 -47 5z"/>
<path d="M3985 875 c-22 -25 -45 -45 -51 -45 -6 0 -17 -7 -24 -15 -14 -17
-126 -22 -115 -6 7 13 -6 20 -57 30 -24 5 -51 12 -60 16 -13 5 -18 2 -18 -9 0
-9 12 -18 28 -22 75 -17 87 -24 35 -19 -29 2 -53 1 -53 -2 0 -10 34 -32 50
-33 8 0 23 -11 35 -25 11 -14 34 -28 52 -31 28 -6 37 -1 78 40 26 25 51 46 56
46 18 0 99 83 99 101 0 28 -11 23 -55 -26z"/>
</g>
</svg>
